<?xml version="1.0" encoding="utf-8"?>
<!-- Generator: Adobe Illustrator 27.1.1, SVG Export Plug-In . SVG Version: 6.00 Build 0)  -->
<svg version="1.1" id="Layer_1" xmlns="http://www.w3.org/2000/svg" xmlns:xlink="http://www.w3.org/1999/xlink" x="0px" y="0px"
	 viewBox="0 0 990.1 1525.9" style="enable-background:new 0 0 990.1 1525.9;" xml:space="preserve">
<style type="text/css">
	.st0{fill:#34332E;}
	.st1{fill:#837E7B;}
	.st2{fill:#55524E;}
	.st3{fill:#F8D714;}
	.st4{fill:#F8D615;}
	.st5{fill:#EB4236;}
	.st6{fill:#AE9830;}
	.st7{fill:#73672B;}
	.st8{fill:#BCA42F;}
	.st9{fill:#C8AE2E;}
	.st10{fill:#645A28;}
	.st11{fill:#AF3B32;}
	.st12{fill:#BF3C33;}
	.st13{fill:#EC4236;}
	.st14{fill:#F58B26;}
	.st15{fill:#F9D615;}
	.st16{fill:#F9D714;}
	.st17{fill:#F9D614;}
	.st18{fill:#F9D515;}
	.st19{fill:#F5A421;}
	.st20{fill:#F5B11D;}
	.st21{fill:#EF662E;}
	.st22{fill:#EC4436;}
	.st23{fill:#EC4635;}
	.st24{fill:#EC4935;}
</style>
<path class="st0" d="M571.4,78.7h-33.2V131c33.6-0.6,66.4,1.3,98.9,8.3c3.7-18.7,7.4-36.8,11.1-55.4c-9.9-2-19.8-4.1-29.8-6.1
	c3.4-20.1,6.7-39.7,10-59.2c0.8-4.8,1.6-9.6,2-14.5c0.3-3.2,1.8-3.4,4.3-2.9c17.1,3.3,34.2,6.6,51.3,9.9c14,2.7,28,5.6,42,8.3
	c16.2,3.2,32.4,6.3,48.6,9.5c1.4,0.3,2.9,1.1,4.3,1c5.1-0.2,4.8,2.7,4,6.2c-2.2,9.6-4.5,19.1-6.7,28.7c-3,12.7-6,25.4-8.9,38.1
	c-0.8,3.3-1.7,4.4-5.7,3.4c-9.8-2.5-19.9-4-30.4-6c-3.6,18.5-7.3,37.2-10.7,55.9c-0.2,1.1,1.4,3.3,2.5,3.6
	c20.7,5.9,41.6,11.3,62.3,17.4c10.2,3,20.1,7,30.8,10.7c3.4-7.9,6.8-16.1,10.3-24.3c3.8-9,7.5-18.1,11.6-26.9c1.8-3.9,0.7-5.5-3-7
	c-6.8-2.7-13.4-5.7-20.5-8.8c2.9-7.3,5.8-14.3,8.6-21.3c6.3-15.7,12.6-31.4,18.8-47.2c1.1-2.8,2-4.1,5.4-2.7
	C896,69.9,942.7,89.9,989.5,110c0.1,0.1,0.2,0.2,0.6,0.8c-10.9,23.2-21.8,46.5-33,70.4c-9.2-3.9-18.5-7.5-27.4-11.8
	c-4.8-2.4-6.6-1.3-8.8,3.4c-20.2,43.8-40.7,87.5-61.2,131.2c-1,2.2-1.6,3.8,0,6.2c10.4,15.2,4,38.3-18.6,40.6
	c-1.5,0.1-3.5,1.2-4,2.4c-11.5,24.5-22.8,49-34.1,73.6c-0.2,0.4-0.2,0.9-0.7,2.5c53.6,32.1,107.4,64.4,161.6,96.9
	c0.2-0.8,0.2-0.2,0,0.1c-31.2,39.9-53.1,84.8-71.2,131.8c-9.4,24.5-17.2,49.6-23.2,75.1c-4.3,18-7.3,36.4-10.2,54.7
	c-2.3,15.2-4.2,30.6-5,45.9c-1.3,24.8-2.1,49.7-1.9,74.6c0.1,15.2,2,30.5,3.8,45.7c2.2,18.3,4.7,36.6,8.1,54.7
	c3,15.8,7,31.4,11.3,46.8c4.4,16.1,8.6,32.4,14.8,47.9c10.3,25.7,21.2,51.2,33.7,75.8c10.4,20.6,23.1,39.9,35.1,59.6
	c4,6.6,3.6,13.4,1.8,20.1c-4.4,15.8-14,28.8-24.4,41.2c-26.5,31.6-59.7,53.2-98,67.9c-34.1,13.1-69,23.3-104.1,32.8
	c-45.5,12.3-90.9,24.8-134.3,43.7c-31.7,13.8-58.4,34-82.8,58c-7.3,7.2-14.6,14.6-23.2,23.2c-9-9.6-17.7-19.1-26.7-28.3
	c-30-30.7-66.5-50.8-106.9-64.4c-16.1-5.4-32.1-11.3-48.3-16.3c-16.4-5-33.1-9.1-49.7-13.7c-15.4-4.3-30.9-8.4-46.2-13.1
	c-17.3-5.3-34.4-10.9-51.5-16.8c-52.1-18-96.4-46.5-126.5-94.2c-5.8-9.2-11.2-18.9-10.4-30.4c0.2-3.1,1.3-6.5,3-9
	c21.4-31.6,39.8-64.9,54.2-100.1c8.8-21.5,16.8-43.5,23.6-65.8c6.7-22.1,11.9-44.7,16.8-67.2c3.2-14.6,5.3-29.5,7-44.3
	c1.9-16.7,3.2-33.4,4-50.1c0.8-17,1.4-34.2,0.9-51.2c-0.4-15.7-2.3-31.4-3.9-47.1c-1.2-12.1-2.3-24.1-4.2-36.1
	c-2.1-13-4.8-26-7.7-38.9c-9.8-42.2-23.3-83.2-41.7-122.5c-14.9-31.8-31.7-62.5-53.8-90c-0.2-0.2-0.2-0.6,0,0
	c54.1-32.4,108-64.8,162.1-97.2c-9.7-21-19-41-28.2-61c-2.2-4.7-4.4-9.3-6.4-14c-1-2.5-2.4-3.2-5.2-3.4
	c-12.7-0.5-24.7-13.2-23.6-25.7c0.4-5,3.6-9.7,5.4-14.6c0.6-1.6,1.1-3.9,0.5-5.3c-21.1-45.6-42.4-91.1-63.7-136.6
	c-0.1-0.3-0.4-0.5-0.9-1.2c-10.8,4.6-21.7,9.2-33,14.1c-5.9-12.4-11.6-24.7-17.4-37c-4.5-9.6-9-19.2-13.5-28.8
	c-0.6-1.3-1.6-2.3-2.5-3.5c0-0.7,0-1.3,0-2c1.4-0.4,2.9-0.8,4.2-1.3c21-9,42-18.1,63-27.1c25.7-11.1,51.4-22.1,77.6-33.3
	c9.7,24.3,19.4,48.4,29.1,72.7c-8.7,3.8-16.9,7.4-25.4,11.1c8.1,19.1,16,37.6,23.9,56.2c4.1-1.6,7.5-3.2,11.1-4.3
	c26.8-8,53.6-16,80.4-23.8c3.2-0.9,4.4-2.2,3.7-5.5c-2-9.6-3.9-19.3-5.9-28.9c-1.7-8.4-3.5-16.8-5.2-25.4
	c-10.9,2.1-21.4,4.1-31.8,6.3c-2.6,0.6-3.5,0.1-4.1-2.4c-4-18.3-8.2-36.5-12.3-54.8c-1.4-6.2-2.7-12.3-4.1-18.7
	c52-10.1,103.2-20,154.7-29.9c4.4,26.3,8.6,51.6,12.9,77.2c-8.8,1.8-17.1,3.7-25.5,5c-3.6,0.6-4.5,1.8-3.7,5.1
	c1.4,6.5,2.6,13,4,19.5c2.1,10.5,4.3,21,6.5,31.9c32.6-7,65.2-9.8,98.7-8.1V78.7h-33.3c-0.3-0.3-0.6-0.5-0.9-0.8
	c-0.4-2.1-1.1-4.1-1.1-6.2c-0.4-17.2-0.7-34.4-1.1-51.6c-0.2-6.7-0.6-13.5-1-20.2c0.7,0,1.3,0,2,0c1.9,0.3,3.7,0.9,5.6,0.9
	c51,0.1,102.1,0.1,153.1,0.1c-0.7,22.5-1.3,45.1-2,67.6c-0.1,3.1-0.7,6.2-1,9.2C572,78.2,571.7,78.5,571.4,78.7L571.4,78.7z
	 M737.1,443.9c13.4-6.2,26.8-12.5,40.2-18.7c-2.1-2-3.6-2.8-5.1-3.4c-53.4-21-108.2-37.2-164.6-48c-35.4-6.8-71.2-10.6-107.3-11
	c-14.2-0.2-28.4,0.8-42.5,2c-17,1.4-34.1,2.7-51,5.3c-46.9,7.2-92.7,18.7-137.6,33.6c-18.7,6.2-37.2,13.1-55.8,19.6
	c-0.1,0.6-0.1,1.2-0.2,1.8c13.3,6.3,26.6,12.5,40,18.8c9.6,3.9,19.1,8.1,28.9,11.5c11.8,4.1,23.7,7.9,35.8,11.4
	c10.6,3,21.3,5.6,32,8.1c8.5,2,17.1,4.1,25.8,5.5c15.2,2.4,30.5,4.4,45.8,6.2c13.9,1.6,27.7,3.5,41.6,3.8
	c19.9,0.4,39.8-0.2,59.7-0.9c14.3-0.5,28.5-1.6,42.8-3c14.3-1.3,28.8-2.3,42.9-5.2c25-5.2,50-10.9,74.6-17.9
	C701.2,458.3,719,450.6,737.1,443.9L737.1,443.9z M480.6,225.2c-0.4,0-0.7-0.1-1.1-0.1c-1.9,0.3-3.9,0.7-5.8,0.8
	c-11.9,0.4-23.9,0.2-35.7,1.3c-23.1,2.1-46.3,4.5-69.3,7.7c-46.8,6.4-92.7,16.9-137.5,32.1c-26,8.8-51.6,18.6-74.3,34.5
	c-6.4,4.5-12,10.5-17.1,16.5c-3.5,4.1-3.9,9.3-0.9,14.4c3,5,7.3,7,13,6.6c2.4-0.2,4.9-0.4,7.4-0.7c12.4,26.8,24.7,53.4,37.1,80.1
	c1.8-0.6,2.8-1.1,3.9-1.5c31.1-11,61.9-23.1,93.5-32.7c60.2-18.4,121.7-30.3,184.8-32.5c0.4,0,0.7-0.1,1.1-0.1c11,0,21.9,0,32.9,0
	c0.4,0,0.7,0.1,1.1,0.1c31.5,0.8,62.6,4.7,93.5,10.4c58,10.7,114.2,27.3,169.1,48.9c6,2.3,11.8,4.9,18,7.4
	c12.5-27.1,24.9-53.7,37.1-80.2c2.6,0.3,4.7,0.5,6.8,0.7c6,0.5,10.8-1.5,13.7-7c2.9-5.4,1.8-10.4-1.6-15c-2.6-3.4-5.5-6.7-8.7-9.5
	c-12.2-10.6-26.4-17.9-41-24.3c-63.8-28-131.1-42.6-199.9-51.1c-21.5-2.7-43.2-4.5-64.8-5.7C517.5,225.1,499,225.4,480.6,225.2
	L480.6,225.2z M527.7,143.8c-0.1-2.6-0.1-5.3-0.2-7.9c-0.3-8-0.7-16-1-24c0-14.6,0-29.2,0-43.9c9.9,0,19.9,0,29.8-0.1
	c1.7,0,3.4-0.7,5-1.1c0.7-18.1,1.3-36.2,2-54.5h-137c0.8,18.4,1.5,36.4,2.3,54.4c1.7,0.4,3.3,1.1,5,1.1c9.9,0.1,19.8,0.1,29.7,0.1
	c0,18.3,0,36.6,0,54.9c-0.3,5.2-0.8,10.3-0.7,15.4c0,3.3-0.8,5-4.3,4.7c-38.4-0.9-76.6-0.2-114.1,10.4
	c-5.4-26.8-10.5-52.7-15.8-78.8c10.3-2,20.1-4,30.3-6c-3.1-18.3-6.1-36.3-9.2-54.5c-44.1,8.6-87.8,17-131.4,25.5
	c4.2,18.1,8.2,35.7,12.4,53.8c12-2.2,23.6-4.4,35.5-6.7c5.3,27.1,10.6,53.6,15.8,80.2c-17.4,4.7-34.4,9-51.2,14
	c-21.6,6.5-43.8,11.4-63.6,23.6c-11.1-26.2-22.2-52.4-33.5-78.9c8.8-3.8,17.1-7.4,25.6-11.1c-6.9-17.3-13.7-34.1-20.6-51.3
	c-41.3,17.7-82,35.2-122.9,52.8c7.9,16.9,15.7,33.4,23.5,50c11.3-4.8,22.1-9.4,33.3-14.2c21.8,46.6,43.4,92.8,64.8,138.7
	c11.7-6.8,22.7-14,34.4-19.9c40.5-20.2,83.6-33.2,127.7-42.8c26-5.6,52.5-9.3,78.8-13.1c17.9-2.6,35.9-4.4,53.9-5.9
	c15.1-1.3,30.4-1.6,45.6-2.4c14,0,28,0,42,0c10.7,0.7,21.3,1.4,32,2.1c11.9,0.7,23.8,0.8,35.6,2.3c25.8,3.3,51.7,6.5,77.3,11.1
	c35.5,6.4,70.3,15.8,104.3,27.7c27,9.5,53.4,20.2,77.2,36.7c2.2,1.5,4.5,3.1,6.9,4.8c21.8-46.7,43.5-93,65.2-139.5
	c11.4,4.9,22.3,9.5,33.3,14.2c7.9-16.9,15.6-33.3,23.5-50c-41-17.6-81.8-35.1-123-52.8c-6.9,17.4-13.7,34.2-20.5,51.3
	c8.7,3.8,17,7.4,25.6,11.2c-11.3,26.6-22.4,52.7-33.6,79.1c-13.5-9.4-28.6-13.5-43.5-17.9c-22.6-6.7-45.4-12.7-68.1-19
	c-1.9-0.5-3.7-0.2-3-3.6c3.1-13.9,5.7-28,8.5-42c2.3-11.8,4.7-23.7,7-35.7c12.1,2.3,23.7,4.5,35.5,6.7c4.2-18.3,8.2-35.9,12.3-53.8
	c-44-8.5-87.5-17-131.3-25.5c-3.1,18.3-6.2,36.3-9.3,54.5c8.4,1.7,16.5,3.5,24.7,4.8c4.5,0.7,5.7,2.3,4.7,6.9
	c-3.1,14.3-5.8,28.7-8.7,43c-2,9.9-4,19.8-5.8,28.3c-23.1-3-45.5-5.9-68-8.7c-13.7,0-27.3,0-41,0C534.2,143.2,531,143.5,527.7,143.8
	L527.7,143.8z M148.9,912.5c-1.3,14.9-2.4,29.8-4.1,44.6c-1.6,14.8-3.3,29.6-5.9,44.3c-15.4,84.7-45.5,163.8-93,235.7
	c-7.6,11.4-7,20.3-0.8,30.7c0.8,1.4,1.6,2.9,2.5,4.3c18.8,30,43.9,53.6,75,70c38.7,20.5,80.5,32.6,122.5,44.1
	c41.3,11.3,82.9,21.6,122.9,37c35.3,13.5,69,29.7,96.8,56.1c10.1,9.6,20.2,19.1,31.4,29.6c4.6-5.1,9-10.4,13.9-15.2
	c23-22.4,47.7-42.2,77.2-55.8c39.1-18,80-30.6,121.3-41.8c40.7-11.1,81.4-21.9,120.9-36.8c38-14.3,71.8-34.7,98-66.2
	c9.6-11.5,18.7-23.5,22.7-38.3c0.8-2.9,0.7-7.1-0.9-9.4c-35.3-52.3-61.6-108.9-79.7-169.3c-7.1-23.6-12.2-47.9-17.6-72
	c-2.7-12-4.2-24.4-5.9-36.6c-1.5-10.8-3.1-21.5-3.9-32.4c-0.9-11.2-0.9-22.5-1.3-33.7c0-12,0-24,0-36c1.1-17.2,1.7-34.5,3.5-51.7
	c1.6-15.7,4-31.3,6.7-46.8c12.7-71.5,36.4-139,72.8-201.9c7.1-12.3,15-24.2,22.6-36.3c-0.2-0.1-0.4-0.4-0.6-0.6
	c-52.1-31.4-104.2-62.8-156.2-94.3c-2.3-1.4-4-1.3-6.3,0c-25.8,15-53.3,26.2-81.5,35.8c-45.9,15.7-93.4,24.3-141.4,29.8
	c-14.6,1.7-29.4,1.5-44.1,2.2c-14.7,0-29.3,0-44,0c-8.6-0.4-17.2-0.6-25.7-1.2c-10.6-0.8-21.2-1.8-31.8-2.9
	c-25.2-2.8-50.2-7-74.9-12.9c-46.2-11.1-90.8-26.5-132.2-50.2c-3.2-1.8-5.3-1.8-8.4,0.1c-43.8,26.9-87.6,53.6-131.5,80.3
	c-8,4.9-16.4,9.3-24.7,14.1c15.9,22.1,29.2,45.3,41.1,69.3c26.6,53.9,45,110.6,55.2,169.8c3.9,22.3,6,45,8.2,67.5
	c1.1,11.2,0.9,22.5,1.2,33.8C148.9,883.7,148.9,898.1,148.9,912.5L148.9,912.5z"/>
<path class="st1" d="M575.3,1.1c-51,0-102.1-0.1-153.1-0.1c-1.9,0-3.7-0.6-5.6-0.9c53,0,105.9,0,158.8,0
	C575.4,0.4,575.3,0.7,575.3,1.1z"/>
<path class="st2" d="M571.4,78.7c0.3-0.3,0.6-0.5,0.9-0.8C572,78.2,571.7,78.5,571.4,78.7z"/>
<path class="st3" d="M516.5,501.8c14.7-0.7,29.5-0.6,44.1-2.2c48-5.5,95.5-14.1,141.4-29.8c28.2-9.6,55.7-20.8,81.5-35.8
	c2.3-1.3,3.9-1.4,6.3,0c52,31.5,104.1,62.9,156.2,94.3c0.3,0.2,0.5,0.4,0.6,0.6c-7.6,12.1-15.5,24-22.6,36.3
	C887.6,628,863.8,695.5,851.2,767c-2.8,15.5-5.1,31.1-6.7,46.8c-1.7,17.2-2.4,34.5-3.5,51.7c-0.3,9.1-0.6,18.2-0.8,27.2
	c0,2.9,0.5,5.8,0.8,8.8c0.4,11.2,0.4,22.5,1.3,33.7c0.8,10.8,2.4,21.6,3.9,32.4c1.8,12.2,3.2,24.6,5.9,36.6
	c5.4,24.1,10.6,48.3,17.6,72c18,60.4,44.4,117,79.7,169.3c1.6,2.3,1.6,6.5,0.9,9.4c-4,14.8-13.1,26.8-22.7,38.3
	c-26.2,31.6-60,51.9-98,66.2c-39.5,14.9-80.3,25.7-120.9,36.8c-41.4,11.3-82.2,23.9-121.3,41.8c-29.5,13.6-54.2,33.4-77.2,55.8
	c-4.9,4.8-9.2,10.1-13.9,15.2c-11.2-10.5-21.4-20-31.4-29.6c-27.8-26.5-61.5-42.6-96.8-56.1c-40.1-15.4-81.7-25.7-122.9-37
	c-42-11.5-83.9-23.6-122.5-44.1c-31.1-16.5-56.3-40-75-70c-0.9-1.4-1.6-2.9-2.5-4.3c-6.2-10.4-6.8-19.2,0.8-30.7
	c47.5-71.9,77.6-151,93-235.7c2.6-14.6,4.3-29.5,5.9-44.3c1.6-14.8,2.7-29.8,4.1-44.6c0.3-14,0.6-27.9,0.8-41.9
	c0-0.4-0.5-0.8-0.8-1.2c-0.4-11.3-0.1-22.6-1.2-33.8c-2.3-22.5-4.4-45.2-8.2-67.5c-10.2-59.2-28.6-115.9-55.2-169.8
	c-11.9-24-25.2-47.2-41.1-69.3c8.3-4.7,16.7-9.2,24.7-14.1c43.9-26.7,87.7-53.4,131.5-80.2c3.1-1.9,5.3-1.9,8.4-0.1
	c41.4,23.7,86,39.1,132.2,50.2c24.7,5.9,49.7,10.2,74.9,12.9c10.6,1.2,21.2,2.1,31.8,2.9c8.6,0.6,17.1,0.8,25.7,1.2
	c1.1,0.3,2.2,0.8,3.3,0.8c9.6,0.1,19.3,0.2,28.9,0.1C508.7,502.6,512.6,502.1,516.5,501.8L516.5,501.8z M207,881.6
	c-1.7,26.1-3.5,52.2-5.2,78.6H788c0-4.9,0.3-9.7,0-14.4c-1.4-18.6-4-37.1-4.3-55.7c-0.4-26.7,0.2-53.5,1.7-80.2
	c2.2-37.4,8.7-74.2,17.9-110.5c12.9-50.6,31-99.3,57.3-144.6c1.4-2.4,2.8-4.8,4.1-7.1c-0.8-0.8-1.1-1.2-1.5-1.4
	c-27.5-17.5-55-35-82.7-52.3c-1.6-1-4.5-1-6.4-0.3c-16.4,5.4-32.6,11.5-49,16.7c-68.9,21.9-139.6,34.1-211.7,37.1
	c-26.5,1.1-53.1-0.5-79.6-1.8c-34.1-1.7-67.7-6.8-101.1-14.1c-40.2-8.8-79.4-20.5-116.9-37.8c-1.7-0.8-4.6-0.5-6.2,0.5
	c-17.7,10.9-35.2,22.1-52.8,33.2c-10.4,6.6-20.7,13.2-30.9,19.7C179,639.5,203.7,739,207,844.4C207,856.8,207,869.2,207,881.6
	L207,881.6z M201,980.5c-0.3,1.6-0.8,3-0.9,4.4c-3.4,35.7-10,70.7-19.2,105.3c-12.9,48.5-30.9,94.9-58.7,136.9
	c-6.4,9.8-6.5,18.5-0.3,27.2c5.9,8.2,12.4,16.2,20,22.7c25.3,21.7,54.2,37.5,86.1,47.1c41.5,12.5,83.3,23.9,124.9,36.2
	c31.7,9.4,63.2,19.9,91.7,37.1c15.9,9.6,30.8,20.9,45.9,31.8c3.5,2.5,5.7,2.8,9.4,0.2c16-11,32-22.1,48.7-32.2
	c24.8-15,51.9-24.7,79.5-33c36.6-11,73.3-21.5,110-32c36-10.4,70.4-24.3,100.8-46.8c11.8-8.8,23.2-18.1,30.5-31.1
	c4.2-7.5,6.3-15.5,1-23.6c-42.6-65.4-64.1-138.3-76-214.5c-1.8-11.8-3.1-23.6-4.7-35.7L201,980.5L201,980.5z"/>
<path class="st4" d="M477.5,206.8c-15.2,0.8-30.4,1.1-45.6,2.4c-18,1.5-36,3.3-53.9,5.9c-26.4,3.9-52.8,7.5-78.8,13.1
	c-44,9.6-87.1,22.6-127.6,42.8c-11.7,5.8-22.6,13-34.4,19.9c-21.4-45.9-43-92.1-64.8-138.7c-11.2,4.8-22,9.4-33.3,14.2
	c-7.8-16.6-15.6-33.1-23.5-50c41-17.6,81.6-35.1,122.9-52.8c6.9,17.1,13.7,34,20.6,51.3c-8.5,3.7-16.8,7.3-25.6,11.1
	c11.2,26.5,22.4,52.7,33.5,78.9c19.9-12.3,42.1-17.2,63.6-23.6c16.8-5,33.9-9.3,51.2-14c-5.2-26.6-10.5-53.1-15.8-80.2
	c-11.9,2.2-23.5,4.4-35.5,6.7c-4.2-18.1-8.2-35.7-12.4-53.8c43.6-8.5,87.3-16.9,131.4-25.5c3.1,18.3,6.1,36.2,9.2,54.5
	c-10.2,2-20,3.9-30.3,6c5.2,26.1,10.4,52,15.8,78.8c37.5-10.7,75.8-11.4,114.1-10.4c1.5,0.3,3,0.7,5,1.1v-21.2c0-18.3,0-36.6,0-54.9
	c-1.5-0.3-2.9-1-4.4-1c-10.1-0.1-20.2-0.1-30.3-0.2c-0.8-18-1.5-36-2.3-54.4h137c-0.7,18.2-1.3,36.3-2,54.5c-10.1,0-20.3,0-30.4,0.2
	c-1.5,0-3,0.7-4.5,1c0,14.6,0,29.2,0,43.9c0,9.6,0,19.2,0.1,28.9c0,1,0.7,2,1.1,3c3.2-0.3,6.5-0.6,9.7-0.9c13.7,0,27.3,0,41,0
	c22.5,2.9,44.9,5.8,68,8.7c1.7-8.5,3.8-18.4,5.8-28.3c2.9-14.3,5.5-28.7,8.7-43c1-4.6-0.2-6.2-4.7-6.9c-8.2-1.3-16.3-3.1-24.7-4.8
	c3.1-18.1,6.2-36.2,9.3-54.5c43.8,8.5,87.3,17,131.3,25.5c-4.1,17.9-8.1,35.5-12.3,53.8c-11.8-2.2-23.4-4.4-35.5-6.7
	c-2.4,12.1-4.7,23.9-7,35.7c-2.8,14-5.4,28-8.5,42c-0.7,3.4,1.1,3.1,3,3.6c22.7,6.3,45.5,12.3,68.1,19c14.9,4.4,30,8.5,43.5,17.9
	c11.2-26.4,22.3-52.4,33.6-79.1c-8.5-3.7-16.8-7.4-25.6-11.2c6.8-17.1,13.5-33.9,20.5-51.3c41.2,17.7,82,35.2,123,52.8
	c-7.8,16.7-15.5,33.1-23.5,50c-11-4.7-22-9.4-33.3-14.2c-21.7,46.5-43.3,92.8-65.2,139.5c-2.4-1.7-4.7-3.3-6.9-4.8
	c-23.7-16.4-50.2-27.2-77.2-36.7c-34-12-68.8-21.3-104.3-27.7c-25.6-4.6-51.5-7.9-77.3-11.1c-11.8-1.5-23.7-1.5-35.6-2.3
	c-10.7-0.7-21.3-1.4-32-2.1c-8.1-0.3-16.2-0.9-24.2-0.9C489.3,205.8,483.4,206.4,477.5,206.8L477.5,206.8z"/>
<path class="st5" d="M512.4,351.6c-11,0-21.9,0-32.9,0c-0.4,0-0.7,0.1-1.1,0.1c-63.1,2.2-124.6,14-184.8,32.5
	c-31.5,9.6-62.4,21.7-93.5,32.7c-1.1,0.4-2.1,0.8-3.9,1.5c-12.4-26.7-24.7-53.3-37.1-80c-2.6,0.2-5,0.5-7.4,0.7
	c-5.6,0.4-10-1.6-13-6.6c-3.1-5.1-2.6-10.4,0.9-14.4c5.2-6,10.7-12,17.1-16.5c22.7-15.8,48.3-25.6,74.3-34.5
	c44.8-15.2,90.7-25.7,137.5-32.1c23-3.2,46.2-5.5,69.3-7.7c11.9-1.1,23.8-0.9,35.7-1.3c1.9-0.1,3.9-0.5,5.8-0.8
	c0.4,0,0.7,0.1,1.1,0.1c18.4,0.3,36.9,0,55.3,1c21.6,1.2,43.3,3.1,64.8,5.7c68.8,8.5,136.1,23.2,199.9,51.1
	c14.6,6.4,28.8,13.8,41,24.3c3.2,2.8,6.1,6.1,8.7,9.5c3.4,4.5,4.5,9.6,1.6,15c-3,5.5-7.7,7.5-13.7,7c-2.1-0.2-4.3-0.4-6.8-0.7
	c-12.3,26.5-24.6,53.2-37.1,80.2c-6.2-2.5-12-5.1-18-7.4C721.2,389.5,665,372.8,607,362.1c-30.9-5.7-62-9.6-93.5-10.4
	C513.2,351.7,512.8,351.7,512.4,351.6L512.4,351.6z M622.9,291.8c-13.2-10.2-26.4-20-39.1-30.3c-7.7-6.2-14.6-6.2-22.5-0.8
	c-10.2,6.9-20.6,13.4-31,20c-3.2,2.1-6.6,4-10,6.1c13.4,10.5,26.5,20.5,39.3,30.8c6.9,5.6,13.4,5.8,20.8,0.9
	C594.3,309.4,608.5,300.8,622.9,291.8L622.9,291.8z M474.8,286.9c-6.7-4.3-13.2-8.5-19.7-12.6c-7.9-5-15.8-9.8-23.6-14.9
	c-6.6-4.3-12.5-3.8-18.7,1c-13.4,10.5-27,20.9-40.7,31.4c3.2,1.9,6.4,3.7,9.5,5.6c11.5,7.2,23.1,14.4,34.6,21.8
	c6.2,4,11.9,4,17.8-0.6C447.5,307.9,461.2,297.4,474.8,286.9L474.8,286.9z M322.1,303c-5.1-1.6-10.3-3.1-15.5-4.7
	c-11.7-3.6-23.4-7.4-35.2-10.9c-5.3-1.6-10.1-0.9-13.8,4c-3.2,4.2-6.9,8.1-10.1,12.4c-7.8,10.2-15.4,20.5-23,30.7
	c16,4.9,31.9,9.5,47.7,14.7c8.5,2.9,14.8,1,19.9-6.2c0.6-0.8,1.2-1.5,1.9-2.4C303.2,328.1,312.6,315.6,322.1,303L322.1,303z
	 M668.1,303c3.3,4.3,6.5,8.3,9.6,12.4c8.1,10.5,16,21.2,24.6,31.4c1.9,2.2,6.4,4.2,9,3.5c18.3-4.8,36.5-10.4,55-15.9
	c-11.2-14.5-22.1-28.3-32.8-42.4c-3.8-5.1-8.6-6.5-14.5-4.7C702.1,292.6,685.2,297.8,668.1,303L668.1,303z"/>
<path class="st5" d="M737.1,443.9c-18-5.7-35.8-11.8-53.9-17.1c-16.9-4.9-33.8-9.6-51-13.3c-18.8-4-37.9-6.8-56.9-9.7
	c-22.2-3.4-44.5-5.4-66.9-5.1c-16.3,0.2-32.8-1-49,0.5c-25.4,2.3-50.7,5.7-75.9,9.7c-43.8,6.8-86.1,19.3-127.7,34.1
	c-0.9,0.3-1.9,0.8-2.8,1.1c-13.3-6.3-26.6-12.5-40-18.8c0.1-0.6,0.1-1.2,0.2-1.8c18.6-6.6,37.1-13.4,55.8-19.6
	c45-15,90.8-26.5,137.6-33.6c16.9-2.6,34-3.9,51-5.3c14.1-1.1,28.4-2.1,42.5-2c36.1,0.4,71.8,4.2,107.3,11
	c56.4,10.8,111.2,27,164.6,48c1.5,0.6,3,1.3,5.1,3.4C763.9,431.5,750.5,437.7,737.1,443.9L737.1,443.9z"/>
<path class="st6" d="M516.5,501.8c-3.9,0.3-7.9,0.8-11.8,0.9c-9.6,0.1-19.3,0-28.9-0.1c-1.1,0-2.2-0.5-3.3-0.8
	C487.2,501.8,501.9,501.8,516.5,501.8L516.5,501.8z"/>
<path class="st7" d="M148.9,869.4c0.3,0.4,0.8,0.8,0.8,1.2c-0.2,14-0.6,27.9-0.8,41.9C148.9,898.1,148.9,883.8,148.9,869.4
	L148.9,869.4z"/>
<path class="st8" d="M477.5,206.8c5.9-0.3,11.8-0.9,17.8-0.9c8.1,0.1,16.2,0.6,24.2,0.9C505.5,206.8,491.5,206.8,477.5,206.8
	L477.5,206.8z"/>
<path class="st8" d="M578.5,142.9c-13.7,0-27.3,0-41,0C551.1,142.9,564.8,142.9,578.5,142.9z"/>
<path class="st9" d="M841,901.5c-0.3-2.9-0.8-5.8-0.8-8.8c0.1-9.1,0.5-18.2,0.8-27.2C841,877.5,841,889.5,841,901.5z"/>
<path class="st10" d="M526.5,68c1.5-0.3,3-1,4.5-1c10.1-0.1,20.3-0.1,30.4-0.2c-1.7,0.4-3.4,1-5,1.1C546.4,68,536.5,68,526.5,68z"/>
<path class="st10" d="M428.6,66.8c10.1,0.1,20.2,0.1,30.3,0.2c1.5,0,2.9,0.7,4.4,1c-9.9,0-19.8,0-29.7-0.1
	C432,67.9,430.3,67.2,428.6,66.8L428.6,66.8z"/>
<path class="st6" d="M527.7,143.8c-0.4-1-1.1-2-1.1-3c-0.1-9.6-0.1-19.2-0.1-28.9c0.3,8,0.7,16,1,24
	C527.6,138.5,527.7,141.1,527.7,143.8z"/>
<path class="st10" d="M463.4,122.9v21.2c-2-0.4-3.5-0.8-5-1.1c3.5,0.3,4.3-1.4,4.3-4.7C462.6,133.2,463.1,128.1,463.4,122.9z"/>
<path class="st2" d="M418.6,78.7c-0.3-0.3-0.6-0.5-0.9-0.8C418,78.2,418.3,78.5,418.6,78.7z"/>
<path class="st11" d="M512.4,351.6c0.4,0,0.7,0.1,1.1,0.1C513.2,351.7,512.8,351.6,512.4,351.6z"/>
<path class="st11" d="M478.5,351.7c0.4,0,0.7-0.1,1.1-0.1C479.2,351.6,478.9,351.7,478.5,351.7z"/>
<path class="st12" d="M480.6,225.1c-0.4,0-0.7-0.1-1.1-0.1C479.9,225.1,480.2,225.1,480.6,225.1z"/>
<path class="st13" d="M206.9,844.4c-3.2-105.4-28-205-81.1-297.3c10.3-6.5,20.6-13.1,30.9-19.7c17.6-11.1,35.1-22.3,52.8-33.2
	c1.6-1,4.6-1.3,6.2-0.5c37.4,17.3,76.7,29.1,116.9,37.8c33.3,7.3,67,12.4,101.1,14.1c26.5,1.3,53.1,2.8,79.6,1.8
	c72.1-3,142.8-15.1,211.7-37.1c16.5-5.2,32.7-11.2,49-16.7c1.9-0.6,4.8-0.7,6.4,0.3c27.6,17.3,55.1,34.8,82.7,52.3
	c0.4,0.3,0.7,0.7,1.5,1.4c-1.3,2.3-2.7,4.7-4.1,7.1c-26.3,45.3-44.4,94-57.3,144.6c-9.2,36.3-15.7,73.1-17.9,110.5
	c-1.5,26.7-2.1,53.5-1.7,80.2c0.2,18.6,2.9,37.1,4.3,55.7c0.4,4.7,0,9.5,0,14.4H201.8c1.8-26.4,3.5-52.5,5.2-78.6
	c0.3-10,0.6-20,0.8-29.9C207.8,849.2,207.2,846.9,206.9,844.4L206.9,844.4z M454.6,917.5c-0.3,0.3-0.5,0.7-0.8,1
	c0,7.6,0.1,15.1,0.1,22.7c5,0.4,9.9,0.9,14.9,1c2.5,0.1,5-0.7,7.4-1c0-7.6,0.1-15.1,0.1-22.7c-0.3-0.3-0.5-0.7-0.8-1
	C468.5,917.5,461.6,917.5,454.6,917.5L454.6,917.5z M514.5,909.5c0.3,0.3,0.7,0.5,1,0.8c6.9,0,13.8-0.1,20.7-0.1
	c0.4-2.3,1.1-4.7,1-7c-0.1-7.9-0.5-15.8-0.8-23.7c-1.5-6.7-6-11.1-11.4-15.5c-4.5,7.3-8.7,14-12.8,20.9c-0.5,0.8-1,2.1-0.7,2.7
	C515.9,894.4,513.8,902.1,514.5,909.5L514.5,909.5z M475.5,910.2l1-0.8c0.9-7.3-1.6-15,2.9-21.9c0.3-0.4,0.1-1.4-0.2-1.8
	c-4.4-7.2-8.8-14.3-13.4-21.9c-5.1,4.9-10,8.8-11.2,15.6c-0.1,0.7-0.3,1.4-0.5,2.1c0,9.3-0.1,18.6-0.1,27.9c0.2,0.2,0.5,0.5,0.7,0.7
	C461.5,910.1,468.5,910.2,475.5,910.2L475.5,910.2z M446.6,703.8h99.8c0-3.9,1.7-7.4-3.7-8.2c-25.4-3.5-50.9-4.1-76.4-1.9
	c-7.2,0.6-14.4,1.8-22.2,2.8c0.6,2.9,1,5.1,1.5,7.2C445.9,703.8,446.2,703.8,446.6,703.8L446.6,703.8z M507.5,942.2
	c0.3-0.2,0.6-0.5,1-0.8c0.1-14.6,0.2-29.3,0.3-43.9c0.1-0.1,0.3-0.2,0.3-0.3c-0.1-0.2-0.2-0.5-0.4-0.7c-2.6-6.5-7.5-10.3-13.1-10.2
	c-5.6,0-11,4.3-13.2,10.2c-0.3,0.9-0.8,1.8-0.8,2.8c0,13.4-0.1,26.8,0,40.2c0,1,0.8,1.9,1.2,2.9C491,942.2,499.2,942.2,507.5,942.2
	L507.5,942.2z M608.5,940.4v-22.7h-65v23.7c0.4,0.3,0.7,0.9,1.1,0.9c20.9,0.1,41.7,0.1,62.6,0.1
	C607.6,942.4,608.1,941.1,608.5,940.4L608.5,940.4z M447.5,941.4v-24.2h-64.9c-0.3,0-0.7,0-1,0c0,8.1,0,16.3-0.1,24.4
	c1.1,0.3,2.2,0.8,3.3,0.8c19.7,0,39.4,0,59.1,0C445.2,942.4,446.3,941.8,447.5,941.4L447.5,941.4z M608.4,910.4
	c0.2-0.3,0.5-0.7,0.8-1c0-9,0-17.9,0-26.9c-0.2-0.3-0.5-0.6-0.8-0.9h-64.6v28.8H608.4z M381.7,910.4h65.6v-28.8h-65.5
	c-0.4,1.5-1,3-1.1,4.5c-0.1,6.6-0.1,13.2,0,19.8C380.7,907.4,381.3,908.9,381.7,910.4L381.7,910.4z M446.6,798.8h97.9
	c-1.1-9.3-2.2-18.2-3.2-27c-1.3-0.4-2.6-1.2-3.9-1.2c-27.5-0.1-55.1-0.1-82.7,0c-1.4,0-2.7,0.7-4.1,1c-1.7,8.9-3.3,17.9-5,26.8
	C445.9,798.5,446.2,798.7,446.6,798.8L446.6,798.8z M427.5,835.5c-0.4,3.7,2.5,1.9,3.8,1.9c42.9,0.1,85.7,0.1,128.6,0
	c1.5,0,3-0.8,4.5-1.1c-4.9-9.2-10-18.4-14.7-27.7c-1.3-2.5-2.8-3.1-5.4-3.1c-32.3,0.1-64.5,0.1-96.8,0c-2.8,0-4.1,1-5.4,3.3
	C437.3,817.7,432.4,826.6,427.5,835.5L427.5,835.5z M604.6,873.4c-10.1-8.4-20.2-16.8-30.1-25.4c-3.7-3.2-7.4-4.7-12.5-4.7
	c-44.2,0.2-88.5,0.2-132.7,0c-6,0-10.9,0.9-15,5.6c-3.3,3.7-7.5,6.6-11.2,9.9c-5.6,5-11.2,10-17.7,15.7c18.2,0,35.1-0.3,52.1,0.2
	c7.2,0.2,12.1-1.5,16.6-7.6c10-13.3,24.1-20.5,40.6-21.5c20.3-1.1,35,9.5,46.4,25.3c1.9,2.7,3.6,3.7,6.8,3.6
	c19-0.2,37.9-0.1,56.9-0.1L604.6,873.4z M568.4,708.7h-35.1v22.8c-0.3,0.3-0.6,0.5-0.9,0.8c-6,0-12-0.1-17.9-0.1
	c-0.2-0.2-0.5-0.5-0.7-0.7c0-7.3-0.1-14.6-0.1-21.9l-0.4-0.9h-37c0,8.1,0,15.5,0,22.9c-0.3,0.3-0.6,0.5-0.9,0.8
	c-6.3,0-12.6-0.1-18.9-0.1c-0.2-0.2-0.5-0.5-0.7-0.7c0-7.3-0.1-14.6-0.1-21.9c-0.1-0.3-0.2-0.6-0.4-0.9c-11.2,0-22.5,0-33.7,0
	c-0.4,0.8-1.1,1.7-1.1,2.5c-0.1,16.7-0.1,33.5,0,50.2c0,1,0.8,1.9,1.2,2.9c43.9,0,87.7,0.1,131.6,0.1c5,0,10-0.1,14.9-0.2
	c0.2-0.2,0.5-0.5,0.7-0.7c0-18,0.1-35.9,0.1-53.9C568.9,709.3,568.7,709,568.4,708.7L568.4,708.7z M546,690.4
	c-4.4-13.4,5.9-20.1,12-28.9c2.9-4.2,6.1-8.6,7.5-13.4c4.1-14.3-2-23.7-16.8-26.3c-9.4-1.6-19.2-0.5-28.5,3
	c-6.5,2.5-13.3,4.4-19.7,7.1c-3.7,1.6-6.8,1.5-10.3-0.4c-14.3-7.5-29.4-11-45.6-10.1c-14.8,0.8-24.2,15.4-17.2,28.4
	c3.3,6.1,7.7,11.7,12.1,17c5.3,6.3,9.8,12.6,8,21.4c-0.1,0.6,0.2,1.3,0.3,2.1C480.2,686.5,512.4,686.2,546,690.4L546,690.4z
	 M490.4,588.9c0.1,1.5,0.1,2.5,0.2,3.5c0.4,4.3-0.1,7.6-5,9.8c-5.2,2.3-7.8,7.6-8.8,13.2c-0.4,2.3-1.8,5.9,2.1,7.3
	c9.5,3.5,18.5,7.3,29,2c7.4-3.7,9.2-5.2,5.9-13.2c-1.3-3.1-3.5-6-6-8.3c-2.2-2-5.3-3-8-4.4v-9.7c2-0.2,3.7-0.4,5.5-0.5v-7.5
	c-2.1-0.3-3.8-0.6-5.5-0.8c-0.2-2.3-0.4-4.2-0.6-6h-8.4c-0.2,2.3-0.4,4.3-0.6,6.2c-2,0.2-3.6,0.3-5.4,0.5v7.6
	C486.7,588.6,488.3,588.7,490.4,588.9L490.4,588.9z M519.5,859.4c-16.1-11.4-39.9-7.1-47.6,0.9c4.7,7.1,9.5,14.2,14.4,21.6
	c6.3-3.5,12.4-3.3,18.6,0C509.8,874.3,514.6,867,519.5,859.4z M514.7,917.6v24.8c6.4,0,12.5,0.1,18.6-0.1c1.1,0,3-1.8,3-2.8
	c0.3-7.2,0.1-14.5,0.1-21.9H514.7L514.7,917.6z"/>
<path class="st13" d="M201,980.5h588.7c1.6,12,2.8,23.9,4.7,35.7c11.9,76.3,33.4,149.1,76,214.5c5.3,8.1,3.2,16-1,23.6
	c-7.4,13.1-18.7,22.3-30.5,31.1c-30.4,22.5-64.7,36.4-100.8,46.8c-36.7,10.6-73.5,21-110,32c-27.5,8.3-54.7,18.1-79.5,33
	c-16.7,10.1-32.6,21.2-48.7,32.2c-3.7,2.5-6,2.2-9.4-0.2c-15.1-10.9-30-22.2-45.9-31.8c-28.5-17.2-60-27.7-91.7-37.1
	c-41.5-12.3-83.4-23.7-124.9-36.2c-31.9-9.6-60.8-25.3-86.1-47.1c-7.6-6.5-14.1-14.6-20-22.7c-6.2-8.6-6.1-17.4,0.3-27.2
	c27.7-42.1,45.8-88.4,58.7-136.9c9.2-34.6,15.8-69.6,19.2-105.3C200.2,983.5,200.6,982.1,201,980.5L201,980.5z M732.7,1154.8
	c0.3,0.3,0.6,0.5,0.9,0.8c-4.6,8.4-9.2,16.9-14,25.7c2.1,1.3,4,2.5,5.9,3.7c0.5-0.5,1-0.7,1.3-1.1c14.6-19.2,29.3-38.3,43.9-57.5
	c0.7-0.9,1.5-2,1.5-3c0.1-8.6,0.1-17.2,0.1-26.8c-8.9,3.7-16.7,6.7-24.4,10.1c-2.4,1.1-4.7,3.1-6.1,5.3
	c-9.7,15.7-19.1,31.6-28.6,47.4c-2.6,4.3-5.2,8.7-7.8,13.2c2.7,1.7,5,3.1,7.5,4.7C719.5,1169.7,726.1,1162.3,732.7,1154.8
	L732.7,1154.8z M473.6,1173.2c6.6,0.3,8.8,2.6,9,9.6c0.1,2.7,0,5.5,0,8.6c1.4-0.3,2.3-0.3,3-0.7c4-2.3,8.1-4.6,12-7.1
	c12.5-7.9,12.6-8,22.6,2.8c5.8,6.3,11.6,12.7,17.7,19.4c2.7-3.6,5-6.6,7.2-9.7c2-2.8,4-3.3,7-1c8.3,6.4,16.8,12.5,25.3,18.7
	c3.2,2.3,6.4,4.5,10.5,7.3c-0.5-2.6-0.8-4.1-1.1-5.5c-0.4-1.6-1-3.2-1.3-4.8c-1.1-5.8,1-7.9,6.4-5.6c5.3,2.3,10.2,5.6,15.3,8.3
	c2.7,1.4,5.5,2.4,9.2,4c0.1-8.4-2.3-15.4-7.5-19.4c-8-6.3-17.4-10.7-26.7-16.2c0.1,2.4,0.3,3.9,0.2,5.3c-0.3,3.2-0.8,6.4-1.2,9.5
	c-3-1.3-6.3-2.3-9-4.1c-9.1-6.4-18-13.1-27.3-19.9c-1.8,2.7-3.3,5.1-4.9,7.3c-3.7,5.2-5.3,5.2-9.5,0.5c-5.3-5.9-11-11.6-16.2-17.6
	c-3.5-4-6.9-4.4-11.2-1.4c-4.2,2.9-8.6,5.6-13.1,8.1c-2.9,1.6-6,1.7-7.1-2.4c-0.7-2.8-1.3-5.8-1.2-8.8c0.1-3.4-1.1-4.6-4.3-4.2
	c-9.4,1.1-18.7,2.7-28.1,2.9c-9.8,0.2-14.1,7.1-19.7,12.7c0.1,0.5,0.2,1.1,0.3,1.6c4.2,0.3,8.4,0.7,12.6,1c2.7,0.1,5.4,0.3,8.1,0.4
	c7.3,0.1,14.6,0.2,21.9,0.2C472.8,1173.1,473.2,1173.2,473.6,1173.2L473.6,1173.2z M481.4,1105.2c0.2,0.2,0.4,0.5,0.6,0.7
	c-13.4,12.2-28.4,22.8-40,38.8c2.1-0.7,2.8-0.9,3.6-1.2c14.7-4.8,29.4-9.5,44-14.4c3.8-1.3,5.7,0.1,7.1,3.2c1.1,2.5,2,5.1,3.1,7.7
	c3.1-2.3,5.8-4.6,8.7-6.5c6.4-4.2,7.4-4.2,12.7,1.4c5,5.2,9.8,10.6,14.9,16.1c0.6-1.1,1-1.8,1.3-2.6c3.9-7.8,5.2-8.1,12.1-2.8
	c5.8,4.4,11.5,8.9,17.8,13.8c0-1.6,0-2.3,0-3.1c0-5.3,2.6-7.3,7.6-5.5c1.7,0.6,3.3,1.6,4.9,2.5c11,5.9,21.9,11.8,33,17.6
	c4.1,2.1,8.6,3.7,12.7,5.4c-3.4-9.2-7.1-17.7-9.6-26.6c-1.8-6.3-1.8-13.3,2.2-18.7c1.7-2.2,6.3-2.5,9.8-3.2
	c6.5-1.2,12.4-0.6,17.5,4.6c1.8,1.8,4.9,2.6,7.6,3.1c3.6,0.7,6.1-1.6,6-4.9c0-5.3,1.8-9.1,5.7-12.6c1.6-1.4,1.4-4.8,2-7.2
	c-2-0.5-3.9-1.2-6-1.4c-2.8-0.2-5.7,0.3-8.5-0.2c-3.3-0.6-6.8-1.6-9.7-3.3c-1.5-0.9-2.9-4.3-2.3-5.8c3.1-8.5,17.6-10.6,23.2-3.6
	c3.3,4.1,4.8,4.1,7.9-0.2c1.9-2.5,3.3-5.4,5.3-7.8c6.5-7.2,7.1-10.5,2.4-18.8c1.1-1.5,2.3-3.1,3.5-4.6c4.9-6.5,3.8-13.5-3.1-17.8
	c-6.2-3.9-13.3-6.4-20.4-4.8c-8,1.8-14.2-1.1-20.5-5c-2.7-1.7-5.1-3.8-7.9-5.2c-7.7-3.5-15.5-6.7-23.2-10c-4.3-1.8-9.6-2.6-12.8-5.6
	c-8.5-8-18.9-12.2-29.5-16.3c-2.7-1-6.3-1.1-9-0.2c-6.8,2.2-13.3,5.2-19.8,8.1c-15.2,6.7-30.3,13.9-41.9,26.4
	c-2.2,2.4-4.1,5.2-6.1,7.8c0.3,0.3,0.6,0.6,0.9,0.9c9.3-3.4,18.6-6.9,28-10.3c-17.1,13.3-35.5,25.1-46.6,46.1
	c9.8-4.9,18.2-9.1,26.6-13.4c-38,35.5-46.4,44.5-47.9,52.8C460.1,1114.3,470.7,1109.8,481.4,1105.2L481.4,1105.2z M706.4,1193.3
	c-6-1-11.9-2.1-17.8-3c-4.9-0.7-9.8-1.2-14.6-1.8c-9-1.2-17.4-1-22.7,8.1c-0.9,1.6-2.2,2.9-3.3,4.4c-4.4,6-10.3,8.1-17.5,6.1
	c-3.1-0.9-6.3-1.8-10.2-2.9c2.1,6,4.1,11.2,5.7,16.6c1.3,4.3-0.8,6.4-5.3,5.3c-1.9-0.5-3.8-1.3-5.5-2.2c-6.2-3.2-12.3-6.6-18.5-9.8
	c-1.5-0.8-3.1-1.2-5.7-2.1c2,4.9,3.7,8.6,4.9,12.3c0.6,1.8,0.2,4,0.3,6c-2.1-0.4-4.4-0.5-6.2-1.4c-2.7-1.3-5.1-3.2-7.5-4.9
	c-8-5.6-15.9-11.5-24.2-16.8c-11.4-7.4-8.9-6.4-15.5,2.7c-0.2,0.3-0.4,0.6-0.6,0.8c-3.8,4.8-5.1,5-9.3,0.5
	c-6.7-7.2-13.3-14.4-19.9-21.7c-3.5-3.9-7.3-4.1-11.5-1.3c-4.2,2.8-8.2,5.7-12.4,8.3c-3.2,1.9-6.7,4.4-10.6,1.9
	c-3.7-2.4-2.5-6.1-2.1-9.6c0.1-0.5,0.1-1,0.1-1.5c0.3-6.4-1.8-8-8.3-7.6c-7.5,0.5-15,0.7-22.4,0.5c-5-0.2-10-1.3-15.4-2.1
	c1,3.3,1.8,6,2.7,8.6c1.7,5.2,0.7,9.4-3.4,13.5c-10.7,10.7-23.5,15.3-38.3,15.1c-13.1-0.2-25.4-4.1-37.7-8.6
	c-24.3-9-39.2-25.9-44.5-51.3c-1.6-7.9-0.4-15.6,3-22.9c3-6.5,9.4-8.7,15.8-5.5c7.2,3.5,11.4,9.4,10.3,17.2
	c-0.8,5.9-3.3,11.8-6.4,17c-2.8,4.7-7.4,8.3-11.4,12.5c8.4,11.3,17.7,21.8,30.7,27.5c1.8-3.7,3.1-7,4.9-10.1
	c9.4-15.5,15.5-31.7,14.5-50.4c-0.6-10.4-3.5-19.2-10.3-26.8c-10.6-11.9-23.6-17.1-39.8-16.7c-17.2,0.4-31.3,6.3-41.6,19.8
	c-5.2,6.8-9.3,14.6-12.7,22.4c-7.5,17.5-11.8,35.7-9.8,55.1c2.4,23.7,12.5,43.9,27.2,62.1c5.6,6.9,11.9,13.2,17.9,19.8
	c0.3-0.2,0.6-0.5,1-0.7c-0.7-4.6-1.4-9.3-2.1-13.9c0.6-0.2,1.1-0.4,1.7-0.6c3.9,11.7,9.6,22,21.2,28.2c-0.3-4-0.5-7.4-0.8-10.8
	c0.5-0.2,1-0.3,1.4-0.4c7,12.2,16.4,21.7,29.8,28.6c-1.7-5.6-3.2-10.2-4.6-14.8c5.1,3.6,9.1,7.9,13.8,11.2
	c6.9,4.8,14.3,8.8,21.5,13.2c0,0.1,0.1,0.3,0.1,0.4c0,0.1,0.2,0,0.3,0c-0.2-0.1-0.3-0.3-0.5-0.4c-1.6-5.1-3.2-10.1-5.2-16.4
	c8.8,10.8,18.5,17.8,31.6,21.6c-0.6-5.4-1.2-10.1-1.8-15.4c11,9.2,22.1,16.5,37.6,14.9c-2.9-4.7-5.2-8.4-7.5-12.1
	c12.6,5.1,24.1,11.3,38.2,6.4c-3.7-2.9-6.9-5.5-10.1-8.1c10.5,1.2,20.3,5.6,31.1,1.2c-3.5-3-6.6-5.7-10.9-9.4c2.7,0.6,3.9,0.8,5.1,1
	c5.5,0.8,11.3,2.8,16.6,1.9c10.9-1.7,21.7-2.5,32.5,0.1c21.3,5.1,42.5,10.6,63.8,15.8c12.2,3,24.4,6.3,36.8,8.4
	c8.6,1.5,9.8-0.5,7.4-8.8c-0.1-0.2,0.1-0.6,0.3-1.2c1.7,0.3,3.4,0.8,5.2,1c6.6,0.9,10.1-2.9,8-9.2c-1.2-3.5-3.1-7.1-5.7-9.7
	c-9.1-9.3-20.8-14.1-32.9-17.9c-1.3-0.4-3-0.3-4.4,0c-10.2,2.7-19.4-0.4-28.3-4.7c-5.9-2.8-10.5-7.3-13.3-14.4c2.3,0,3.9,0,5.5,0
	c16.8,0,32.9-3.2,47.9-11.2c5.7-3,11.8-5.7,18.1-6.8c9.1-1.7,18.1-2.8,26.4,5c10,9.4,20.8,5.9,24.2-6.7c-8.1-1.2-14-5.8-18.3-12.5
	c-1.5-2.4-3-2.9-5.7-2.1c-2.2,0.7-4.8,0.8-6.9,0.2c-1.5-0.4-2.5-2.4-3.7-3.7c1.4-0.9,2.7-2.4,4.2-2.7c1.7-0.3,3.6,0.2,5.4,0.6
	c4,0.9,6.4-0.7,7.6-4.4c1.2-3.7,2.6-7.4,3.9-10.8c3.9,0.8,7.6,2.2,11,1.9c3.1-0.3,6.7-2.1,8.8-4.3c2.5-2.6,1.6-6.2-0.8-9.1
	c-0.2-0.3-0.1-0.9-0.2-1.4c7.6,4.5,15.3,9.1,23.2,13.8c2.2-2.9,4.3-5.7,6.7-9c-15.8-10.1-31.2-19.8-46.9-29.8
	c-2.1,3.4-4,6.4-5.9,9.6c1.9,1.3,3.4,2.2,4.9,3.3C694.3,1185.2,700.3,1189.3,706.4,1193.3L706.4,1193.3z M200.6,1233.6
	c-1.8,1.3-3.5,2.6-5.2,3.9c-8.3,6.4-15.3,13.9-17.8,24.5c-0.4,1.6,0,4.2,1.1,5.2c5.6,4.9,12.1,8.4,19.8,8.1
	c6.2-0.3,12.4-1.2,18.7-1.8c1.7,3,3.4,6.4,5.6,9.6c5.9,8.4,13.4,14.2,24.2,14.3c3.5,0,5.1-1.1,6.1-4.8c3.8-14.7,5.7-30.4,19.5-38.9
	c-6.5-13.2-12.8-25.9-19-38.5c-17.8,1.3-33.2-3.2-43.2-20.3C197.2,1205.7,197.2,1219.2,200.6,1233.6L200.6,1233.6z M544.2,1148.6
	c-1.1,1.8-1.9,3.1-2.7,4.3c-3.5,5.2-4.1,5.4-8.5,1.1c-4.9-4.7-9.9-9.4-14.5-14.4c-2.8-3.1-5.1-3.9-8.7-0.9c-2.9,2.4-6.4,4.2-9.7,6
	c-3.3,1.7-5.7,0.9-6.6-3.1c-0.7-2.8-1.8-5.5-2.9-8.5c-16.6,6.1-32.5,12-48.3,17.8c3.4,1.1,6.8,1.4,10,1c4.8-0.5,9.5-1.6,14.2-2.3
	c16.9-2.7,18.7-1.6,22.6,14.3c5.4-2.9,10.6-6.2,16.2-8.5c2.3-0.9,6.1-0.6,8.1,0.7c3.8,2.5,6.9,6.2,10.2,9.5
	c3.8,3.8,7.4,7.8,11.3,11.9c2.1-2.8,3.8-5.3,5.7-7.6c2.1-2.5,4.5-3.3,7.4-1.1c1.7,1.3,3.6,2.3,5.4,3.6c7.5,5.4,15,10.9,22.7,16.6
	c0.2-0.9,0.3-1.4,0.3-1.9c-0.3-3.4-0.9-7.7,2.8-8.7c3-0.9,6.8,0.6,10.2,1.4c1.4,0.3,2.4,1.7,3.7,2.5c6.9,4,13.8,8.1,20.8,11.8
	c8,4.2,13.8,2.8,19.3-6.9c-19.8-9.9-39.6-19.8-59.5-29.7c0.2,1.5,0.7,3.4,0.8,5.4c0.3,4.3-1.7,5.6-5.4,3.6c-1.5-0.8-2.9-1.7-4.2-2.7
	C558.2,1158.8,551.3,1153.8,544.2,1148.6L544.2,1148.6z M685.7,1222.5c2.9,3.4,5.4,6.5,8,9.5c3.7,4.2,9.3,5.7,13.9,3.4
	c4.4-2.1,6.8-5.4,6.3-9.3c-8.6-3.8-16.4-7.3-24.2-10.7C688.5,1217.7,687.1,1220.1,685.7,1222.5L685.7,1222.5z M630,1277.2
	c13.4,4.2,25.8,8.3,34,20.2c1.7-6.7,0.4-12.2-4.7-15.6C650.8,1275.9,641.7,1271.7,630,1277.2L630,1277.2z M712.5,1204.5
	c-2.9,11-12.2,5.2-19.8,7.2c5.3,2.2,9.5,4.1,13.9,5.7c3.2,1.2,6.6,2.8,10,2.7c2.2,0,5.4-2.1,6.4-4.1c1.3-2.7,0.2-5.8-3.1-7.5
	C717.5,1207.4,715.3,1206,712.5,1204.5L712.5,1204.5z"/>
<path class="st14" d="M206.9,844.4c0.3,2.4,0.8,4.8,0.8,7.2c-0.2,10-0.5,20-0.8,29.9C207,869.2,207,856.8,206.9,844.4L206.9,844.4z"
	/>
<path class="st15" d="M622.9,291.8c-14.4,9-28.5,17.7-42.4,26.8c-7.4,4.9-13.9,4.7-20.8-0.9c-12.8-10.3-25.9-20.3-39.3-30.8
	c3.4-2.1,6.7-4,10-6.1c10.3-6.6,20.8-13.1,31-20c7.9-5.4,14.9-5.5,22.5,0.8C596.5,271.8,609.7,281.6,622.9,291.8L622.9,291.8z
	 M583.5,289.8c0-6.7-5.2-12-11.9-12.1c-6.7-0.1-12.1,5.1-12.2,11.7c-0.1,6.8,5.3,12.4,12.1,12.4
	C578.2,301.8,583.5,296.4,583.5,289.8L583.5,289.8z"/>
<path class="st15" d="M474.8,286.8c-13.6,10.5-27.3,21-40.9,31.7c-5.9,4.6-11.6,4.7-17.8,0.6c-11.4-7.4-23-14.5-34.6-21.8
	c-3.1-1.9-6.2-3.7-9.5-5.6c13.7-10.6,27.3-20.9,40.7-31.4c6.1-4.8,12.1-5.4,18.7-1c7.8,5.1,15.7,9.9,23.6,14.9
	C461.6,278.4,468.2,282.6,474.8,286.8L474.8,286.8z M411.6,289.4c-0.1,6.5,5.1,12.2,11.6,12.5c6.5,0.3,12.2-5.1,12.5-11.6
	c0.2-7-4.9-12.5-11.9-12.5C417,277.6,411.7,282.7,411.6,289.4L411.6,289.4z"/>
<path class="st15" d="M322.1,303c-9.5,12.6-18.8,25.1-28.2,37.6c-0.6,0.8-1.3,1.5-1.9,2.4c-5,7.2-11.3,9-19.9,6.2
	c-15.7-5.3-31.7-9.8-47.7-14.7c7.6-10.2,15.3-20.5,23-30.7c3.2-4.2,6.9-8.1,10.1-12.4c3.7-4.8,8.4-5.6,13.8-4
	c11.8,3.5,23.5,7.3,35.2,10.9C311.8,299.9,317,301.5,322.1,303L322.1,303z M273.5,331c6.7,0,12-5.2,12.1-11.9
	c0.1-6.4-5.5-12.1-11.9-12.2c-6.9-0.1-12.2,5.3-12.2,12.3C261.5,326,266.7,331.1,273.5,331L273.5,331z"/>
<path class="st15" d="M668.1,303c17-5.2,34-10.4,51-15.6c5.9-1.8,10.6-0.3,14.5,4.7c10.7,14,21.6,27.9,32.8,42.4
	c-18.6,5.4-36.7,11-55,15.9c-2.6,0.7-7.2-1.3-9-3.5c-8.5-10.2-16.4-20.9-24.6-31.4C674.6,311.3,671.4,307.3,668.1,303L668.1,303z
	 M717.1,331.4c6.3-0.2,12.2-6.2,12.1-12.4c-0.1-6.6-6.2-12.5-12.7-12.2c-6.4,0.3-12,6.2-11.9,12.5
	C704.8,325.6,711,331.6,717.1,331.4L717.1,331.4z"/>
<path class="st16" d="M456.6,732.2c6.3,0,12.6,0.1,18.9,0.1c0.3-0.3,0.6-0.5,0.9-0.8v-22.9c12.6,0,24.8,0,37,0
	c0.1,0.3,0.2,0.6,0.4,0.9c0,7.3,0.1,14.6,0.1,21.9c0.2,0.2,0.5,0.5,0.7,0.7c6,0,12,0.1,17.9,0.1c0.3-0.3,0.6-0.5,0.9-0.8v-22.8
	c12,0,23.6,0,35.1,0c0.2,0.3,0.5,0.6,0.8,0.9c0,18-0.1,35.9-0.1,53.9c-0.2,0.2-0.5,0.5-0.7,0.7c-5,0.1-10,0.2-14.9,0.2
	c-43.9,0-87.7,0-131.6-0.1c0-18.5-0.1-37.1-0.1-55.6c11.2,0,22.5,0,33.7,0c0.1,0.3,0.2,0.6,0.4,0.9c0,7.3,0.1,14.6,0.1,22
	C456.1,731.8,456.4,732,456.6,732.2L456.6,732.2z"/>
<path class="st17" d="M546,690.4c-33.6-4.2-65.8-3.9-98.1,0c-0.1-0.9-0.5-1.5-0.3-2.1c1.8-8.8-2.7-15.1-8-21.4
	c-4.5-5.3-8.9-10.9-12.1-17c-7-13,2.4-27.6,17.2-28.4c16.2-0.9,31.4,2.6,45.6,10.1c3.5,1.9,6.5,2,10.3,0.4
	c6.4-2.8,13.1-4.7,19.7-7.1c9.2-3.5,19.1-4.6,28.5-3c14.8,2.5,21,12,16.8,26.3c-1.4,4.8-4.6,9.2-7.5,13.4
	C552,670.3,541.7,677,546,690.4L546,690.4z M495.7,638.3c-3.2,7.8-6,14.5-8.8,21.3c-0.4,0.9-0.6,2.1-0.2,2.9c2.8,7,5.7,14,9,22.1
	c3.4-8,6.4-14.9,9.2-21.8c0.4-1,0.1-2.6-0.3-3.7C501.9,652.5,499,645.9,495.7,638.3L495.7,638.3z M462.8,640.2
	c-2.5,5.6-4.6,10.3-6.5,15c-0.5,1.2-1.2,2.7-0.8,3.7c2.1,5.5,4.5,10.9,7,16.8c8.6-14.6,8.7-16,2.6-30.2
	C464.5,644.1,463.9,642.8,462.8,640.2z M531.2,640.4c-2.6,6-4.9,11.1-7,16.2c-0.4,0.9-0.3,2.3,0,3.2c2.1,5.1,4.4,10.2,7,16.2
	c2.6-6.1,4.8-11.3,6.9-16.5c0.3-0.8,0.3-2-0.1-2.8C535.9,651.5,533.7,646.4,531.2,640.4L531.2,640.4z"/>
<path class="st17" d="M604.6,874.5c-19,0-37.9,0-56.9,0.1c-3.2,0-4.9-1-6.8-3.6c-11.3-15.8-26-26.5-46.4-25.3
	c-16.5,0.9-30.6,8.1-40.6,21.5c-4.6,6.1-9.5,7.8-16.6,7.6c-16.9-0.5-33.9-0.2-52.1-0.2c6.5-5.7,12-10.8,17.7-15.7
	c3.7-3.3,7.9-6.2,11.2-9.9c4.2-4.7,9.1-5.6,15-5.6c44.2,0.2,88.5,0.2,132.7,0c5.1,0,8.8,1.5,12.5,4.7c9.9,8.6,20.1,16.9,30.1,25.4
	C604.6,873.8,604.6,874.2,604.6,874.5z"/>
<path class="st16" d="M427.5,835.5c4.8-8.9,9.8-17.8,14.5-26.7c1.2-2.3,2.6-3.3,5.4-3.3c32.3,0.1,64.5,0.1,96.8,0
	c2.6,0,4.2,0.6,5.4,3.1c4.7,9.3,9.8,18.5,14.7,27.7c-0.5,0-1,0.2-1.5,0.2c-43.9,0-87.8,0-131.6,0C430,836.5,428.7,835.8,427.5,835.5
	L427.5,835.5z"/>
<path class="st16" d="M445.6,798.4c1.7-8.9,3.3-17.9,5-26.8c12.5,0,24.9-0.1,37.4,0c17.8,0,35.5,0.2,53.3,0.2c1,8.8,2.1,17.6,3.2,27
	c-32.6,0-65.2,0-97.9,0C446.3,798.7,445.9,798.5,445.6,798.4L445.6,798.4z"/>
<path class="st16" d="M381.7,881.6h65.5v28.8h-65.6C381.7,900.8,381.7,891.2,381.7,881.6z"/>
<path class="st16" d="M609.1,882.5c0,9,0,17.9,0,26.9c-0.2,0.3-0.5,0.7-0.8,1h-64.6v-28.8c21.5,0,43.1,0,64.6,0
	C608.6,881.9,608.9,882.2,609.1,882.5z"/>
<path class="st16" d="M381.5,941.7c0-8.1,0-16.3,0.1-24.4c0.3,0,0.7,0,1,0c21.4,0,42.8,0,64.9,0c0,8.4,0,16.3,0,24.2
	C425.5,941.5,403.5,941.6,381.5,941.7L381.5,941.7z"/>
<path class="st16" d="M543.5,941.4v-23.7h65c0,7.6,0,15.1,0,22.7c-1.4,0.3-2.8,1-4.1,1C584.1,941.5,563.8,941.4,543.5,941.4z"/>
<path class="st16" d="M482.4,896.4c2.1-5.9,7.6-10.2,13.2-10.2c5.6,0,10.5,3.8,13.1,10.2c0,0.3,0,0.7,0.1,1
	c-0.1,14.6-0.2,29.3-0.3,43.9c-0.3,0.2-0.6,0.5-1,0.8c-8.2,0-16.5,0-24.7,0C482.6,927,482.5,911.7,482.4,896.4L482.4,896.4z"/>
<path class="st17" d="M490.4,588.9c-2-0.2-3.6-0.3-5.5-0.5v-7.6c1.8-0.2,3.4-0.3,5.4-0.5c0.2-2,0.4-3.9,0.6-6.2h8.4
	c0.2,1.8,0.4,3.8,0.6,6c1.7,0.3,3.4,0.5,5.5,0.8v7.5c-1.8,0.2-3.5,0.3-5.5,0.5v9.7c2.6,1.4,5.7,2.4,8,4.4c2.5,2.3,4.7,5.2,6,8.3
	c3.3,8,1.5,9.5-5.9,13.2c-10.5,5.2-19.6,1.4-29-2c-3.9-1.4-2.5-4.9-2.1-7.3c0.9-5.5,3.5-10.9,8.8-13.2c4.9-2.2,5.5-5.4,5-9.8
	C490.4,591.4,490.4,590.4,490.4,588.9L490.4,588.9z"/>
<path class="st17" d="M445.5,703.8c-0.4-2.2-0.9-4.3-1.5-7.2c7.9-1,15-2.2,22.2-2.8c25.5-2.2,51-1.5,76.4,1.9
	c5.4,0.7,3.7,4.3,3.7,8.2c-33.4,0-66.6,0-99.8,0C446.2,703.8,445.9,703.8,445.5,703.8L445.5,703.8z"/>
<path class="st18" d="M519.5,859.4c-4.9,7.5-9.6,14.9-14.6,22.5c-6.3-3.2-12.3-3.5-18.6,0c-4.9-7.3-9.7-14.5-14.4-21.6
	C479.6,852.3,503.4,848,519.5,859.4z"/>
<path class="st17" d="M453.9,909.4c0-9.3,0.1-18.6,0.1-27.9c0.1-0.7,0.3-1.4,0.5-2.1c1.2-6.7,6.1-10.7,11.2-15.6
	c4.7,7.6,9.1,14.7,13.4,21.9c0.3,0.5,0.5,1.4,0.2,1.8c-4.5,6.9-1.9,14.6-2.9,21.9c-0.3,0.2-0.6,0.5-1,0.8c-7,0-13.9-0.1-20.9-0.1
	C454.4,909.9,454.2,909.6,453.9,909.4L453.9,909.4z"/>
<path class="st16" d="M536.3,910.1c-6.9,0-13.8,0.1-20.7,0.1c-0.3-0.3-0.7-0.5-1-0.8c-0.7-7.3,1.4-15-2.9-22
	c-0.3-0.5,0.2-1.9,0.7-2.7c4.1-6.8,8.3-13.6,12.8-20.9c5.4,4.4,9.8,8.8,11.4,15.5C536.4,889.7,536.4,899.9,536.3,910.1L536.3,910.1z
	"/>
<path class="st16" d="M453.9,941.2c0-7.6-0.1-15.1-0.1-22.7c0.3-0.3,0.5-0.7,0.8-1h20.9c0.3,0.3,0.5,0.7,0.8,1
	c0,7.6-0.1,15.1-0.1,22.7C468.8,941.2,461.3,941.2,453.9,941.2L453.9,941.2z"/>
<path class="st16" d="M514.7,917.6h21.8c0,7.4,0.1,14.6-0.1,21.9c0,1-1.9,2.8-3,2.8c-6.1,0.3-12.2,0.1-18.6,0.1L514.7,917.6
	L514.7,917.6z"/>
<path class="st14" d="M427.5,835.5c1.2,0.3,2.4,1,3.6,1c43.9,0,87.8,0,131.6,0c0.5,0,1-0.1,1.5-0.2c-1.5,0.4-3,1.1-4.5,1.1
	c-42.8,0.1-85.7,0.1-128.6,0C430,837.4,427.1,839.2,427.5,835.5L427.5,835.5z"/>
<path class="st14" d="M541.2,771.8c-17.8-0.1-35.5-0.2-53.3-0.2c-12.5,0-24.9,0-37.4,0c1.4-0.3,2.7-1,4.1-1
	c27.5-0.1,55.1-0.1,82.7,0C538.6,770.6,539.9,771.4,541.2,771.8L541.2,771.8z"/>
<path class="st14" d="M543.5,941.4c20.3,0,40.6,0.1,60.9,0c1.4,0,2.8-0.7,4.1-1c-0.4,0.7-0.9,1.9-1.3,1.9c-20.9,0-41.7,0-62.6-0.1
	C544.2,942.3,543.9,941.7,543.5,941.4L543.5,941.4z"/>
<path class="st14" d="M381.5,941.7c22-0.1,44-0.2,66-0.3c-1.2,0.3-2.4,1-3.6,1c-19.7,0.1-39.4,0.1-59.1,0
	C383.7,942.4,382.6,941.9,381.5,941.7L381.5,941.7z"/>
<path class="st14" d="M421.7,708.7c0,18.5,0.1,37.1,0.1,55.6c-0.4-1-1.2-1.9-1.2-2.9c-0.1-16.7-0.1-33.5,0-50.2
	C420.6,710.4,421.3,709.5,421.7,708.7L421.7,708.7z"/>
<path class="st14" d="M482.4,896.4c0.1,15.3,0.3,30.5,0.4,45.8c-0.4-1-1.2-1.9-1.2-2.9c-0.1-13.4-0.1-26.8,0-40.2
	C481.6,898.2,482.1,897.3,482.4,896.4L482.4,896.4z"/>
<path class="st19" d="M536.3,910.1c0.1-10.2,0.2-20.5,0.2-30.7c0.3,7.9,0.7,15.8,0.8,23.7C537.4,905.5,536.6,907.8,536.3,910.1
	L536.3,910.1z"/>
<path class="st14" d="M381.7,881.6c0,9.6,0,19.2-0.1,28.8c-0.4-1.5-1-3-1-4.5c-0.1-6.6-0.1-13.2,0-19.8
	C380.7,884.6,381.4,883.1,381.7,881.6L381.7,881.6z"/>
<path class="st19" d="M453.9,941.2c7.4,0,14.8,0,22.3,0c-2.5,0.4-5,1.1-7.4,1C463.8,942.2,458.9,941.6,453.9,941.2L453.9,941.2z"/>
<path class="st20" d="M454.5,879.4c-0.1,0.7-0.3,1.4-0.5,2.1C454.2,880.8,454.3,880.1,454.5,879.4z"/>
<path class="st20" d="M608.4,910.4c0.2-0.3,0.5-0.7,0.8-1C608.9,909.8,608.6,910.1,608.4,910.4z"/>
<path class="st21" d="M382.6,917.2c-0.3,0-0.7,0-1,0C382,917.2,382.3,917.2,382.6,917.2z"/>
<path class="st19" d="M454.6,917.5c-0.3,0.3-0.5,0.7-0.8,1C454,918.2,454.3,917.8,454.6,917.5z"/>
<path class="st21" d="M445.6,798.4c0.3,0.1,0.6,0.2,1,0.4C446.2,798.7,445.9,798.5,445.6,798.4z"/>
<path class="st20" d="M568.4,764.2c0.2-0.2,0.5-0.5,0.7-0.7C568.8,763.7,568.6,764,568.4,764.2z"/>
<path class="st21" d="M533.3,731.6c-0.3,0.3-0.6,0.5-0.9,0.8C532.8,732.1,533,731.8,533.3,731.6z"/>
<path class="st21" d="M514.5,732.2c-0.2-0.2-0.5-0.5-0.7-0.7C514,731.8,514.3,732,514.5,732.2z"/>
<path class="st20" d="M507.5,942.2c0.3-0.2,0.6-0.5,1-0.8C508.1,941.7,507.8,941.9,507.5,942.2z"/>
<path class="st21" d="M476.4,731.6c-0.3,0.3-0.6,0.5-0.9,0.8C475.8,732.1,476.1,731.8,476.4,731.6z"/>
<path class="st21" d="M456.6,732.2c-0.2-0.2-0.5-0.5-0.7-0.7C456.1,731.8,456.3,732,456.6,732.2z"/>
<path class="st20" d="M569.2,709.6c-0.2-0.3-0.5-0.6-0.8-0.9C568.7,709,568.9,709.3,569.2,709.6z"/>
<path class="st21" d="M604.6,874.5c0-0.4,0-0.7-0.1-1.1C604.6,873.8,604.6,874.2,604.6,874.5z"/>
<path class="st21" d="M508.7,897.5c0-0.3,0-0.7-0.1-1c0.1,0.2,0.3,0.5,0.4,0.7C509,897.2,508.8,897.4,508.7,897.5L508.7,897.5z"/>
<path class="st19" d="M476.3,918.5c-0.3-0.3-0.5-0.7-0.8-1C475.8,917.8,476,918.2,476.3,918.5z"/>
<path class="st20" d="M453.9,909.4c0.2,0.2,0.5,0.5,0.7,0.7C454.4,909.9,454.2,909.6,453.9,909.4z"/>
<path class="st21" d="M455.8,709.6c-0.1-0.3-0.2-0.6-0.4-0.9C455.5,709,455.7,709.3,455.8,709.6z"/>
<path class="st20" d="M475.5,910.2c0.3-0.2,0.6-0.5,1-0.8C476.1,909.7,475.8,910,475.5,910.2z"/>
<path class="st21" d="M445.5,703.8c0.3,0,0.7,0,1,0C446.2,703.8,445.9,703.8,445.5,703.8z"/>
<path class="st21" d="M513.7,709.6c-0.1-0.3-0.2-0.6-0.4-0.9C513.5,709,513.6,709.3,513.7,709.6z"/>
<path class="st20" d="M609.1,882.5c-0.2-0.3-0.5-0.6-0.8-0.9C608.6,881.9,608.9,882.2,609.1,882.5z"/>
<path class="st19" d="M514.5,909.5c0.3,0.3,0.7,0.5,1,0.8C515.2,910,514.9,909.7,514.5,909.5z"/>
<path class="st16" d="M384.6,1316.2c-7.2-4.3-14.6-8.4-21.5-13.2c-4.7-3.3-8.7-7.6-13.8-11.2c1.4,4.6,2.8,9.2,4.6,14.8
	c-13.4-6.8-22.8-16.4-29.8-28.6c-0.5,0.2-1,0.3-1.4,0.4c0.2,3.4,0.5,6.8,0.8,10.8c-11.6-6.2-17.3-16.5-21.2-28.2
	c-0.6,0.2-1.1,0.4-1.7,0.6c0.7,4.6,1.4,9.3,2.1,13.9c-0.3,0.2-0.6,0.5-1,0.7c-6-6.6-12.3-12.9-17.9-19.8
	c-14.8-18.1-24.9-38.3-27.2-62.1c-1.9-19.4,2.3-37.6,9.8-55.1c3.4-7.9,7.5-15.7,12.7-22.4c10.3-13.5,24.3-19.4,41.6-19.8
	c16.2-0.4,29.2,4.9,39.8,16.7c6.8,7.6,9.7,16.4,10.3,26.8c1,18.7-5.2,34.9-14.5,50.4c-1.8,3.1-3.2,6.4-4.9,10.1
	c-13-5.8-22.3-16.2-30.7-27.5c4-4.3,8.6-7.9,11.4-12.5c3.1-5.1,5.5-11.1,6.4-17c1.1-7.8-3.2-13.7-10.3-17.2
	c-6.4-3.1-12.9-1-15.8,5.5c-3.3,7.3-4.6,14.9-3,22.9c5.2,25.4,20.1,42.3,44.5,51.3c12.2,4.5,24.5,8.4,37.7,8.6
	c14.8,0.2,27.6-4.5,38.3-15.1c4.1-4.1,5.1-8.3,3.4-13.5c-0.9-2.7-1.7-5.4-2.7-8.6c5.4,0.8,10.4,1.9,15.4,2.1c7.5,0.2,15,0,22.4-0.5
	c6.5-0.4,8.6,1.2,8.3,7.6c0,0.5,0,1-0.1,1.5c-0.4,3.4-1.6,7.2,2.1,9.6c3.9,2.5,7.4,0.1,10.6-1.9c4.3-2.6,8.3-5.6,12.4-8.3
	c4.2-2.8,8-2.6,11.5,1.3c6.5,7.3,13.2,14.5,19.9,21.7c4.2,4.5,5.5,4.3,9.3-0.5c0.2-0.3,0.4-0.6,0.6-0.8c6.6-9.1,4.1-10.1,15.5-2.7
	c8.2,5.4,16.1,11.2,24.2,16.8c2.5,1.7,4.8,3.6,7.5,4.9c1.8,0.9,4.1,1,6.2,1.4c-0.1-2,0.3-4.2-0.3-6c-1.2-3.8-2.9-7.4-4.9-12.3
	c2.6,1,4.2,1.4,5.7,2.1c6.2,3.2,12.3,6.6,18.5,9.8c1.8,0.9,3.6,1.7,5.5,2.2c4.4,1.2,6.6-0.9,5.3-5.3c-1.6-5.3-3.6-10.5-5.7-16.6
	c3.9,1.1,7,2.1,10.2,2.9c7.2,2,13.1-0.1,17.5-6.1c1.1-1.5,2.4-2.8,3.3-4.4c5.3-9.1,13.8-9.3,22.7-8.1c4.9,0.7,9.8,1.1,14.6,1.8
	c6,0.9,11.9,2,17.8,3l-0.1-0.1c0.1,0.5-0.1,1.1,0.2,1.4c2.4,2.9,3.3,6.5,0.8,9.1c-2.1,2.3-5.7,4-8.8,4.3c-3.5,0.4-7.1-1.1-11-1.9
	c-1.2,3.4-2.6,7.1-3.9,10.8c-1.3,3.8-3.7,5.3-7.6,4.4c-1.8-0.4-3.7-1-5.4-0.6c-1.5,0.3-2.8,1.7-4.2,2.7c1.2,1.3,2.2,3.3,3.7,3.7
	c2.1,0.6,4.7,0.4,6.9-0.2c2.7-0.8,4.1-0.3,5.7,2.1c4.3,6.7,10.2,11.3,18.3,12.5c-3.5,12.6-14.2,16.1-24.2,6.7
	c-8.3-7.8-17.3-6.7-26.4-5c-6.2,1.1-12.4,3.8-18.1,6.8c-15,8-31.1,11.2-47.9,11.2c-1.6,0-3.2,0-5.5,0c2.8,7.1,7.4,11.6,13.3,14.4
	c8.9,4.3,18.1,7.3,28.3,4.7c1.4-0.4,3.1-0.5,4.4,0c12.1,3.9,23.9,8.6,32.9,17.9c2.5,2.6,4.5,6.2,5.7,9.7c2.1,6.2-1.4,10.1-8,9.2
	c-1.8-0.2-3.5-0.7-5.2-1c-0.2,0.7-0.4,1-0.3,1.2c2.3,8.3,1.2,10.3-7.4,8.8c-12.4-2.1-24.6-5.4-36.8-8.4
	c-21.3-5.2-42.5-10.6-63.8-15.8c-10.8-2.6-21.5-1.8-32.5-0.1c-5.3,0.8-11-1.2-16.6-1.9c-1.2-0.2-2.4-0.5-5.1-1
	c4.3,3.7,7.4,6.3,10.9,9.4c-10.8,4.4-20.6,0.1-31.1-1.2c3.2,2.6,6.4,5.1,10.1,8.1c-14.1,5-25.7-1.3-38.2-6.4
	c2.3,3.7,4.6,7.5,7.5,12.1c-15.6,1.6-26.7-5.7-37.6-14.9c0.6,5.3,1.2,10,1.8,15.4c-13.1-3.7-22.8-10.8-31.6-21.6
	C381.4,1306.2,383,1311.2,384.6,1316.2L384.6,1316.2L384.6,1316.2z"/>
<path class="st17" d="M481.4,1105.2c-10.7,4.6-21.3,9.2-31.8,13.7c1.5-8.3,9.8-17.3,47.9-52.8c-8.4,4.2-16.8,8.4-26.6,13.4
	c11.2-21,29.5-32.8,46.6-46.1c-9.3,3.4-18.6,6.9-28,10.3c-0.3-0.3-0.6-0.6-0.9-0.9c2-2.6,3.8-5.4,6.1-7.8
	c11.6-12.5,26.6-19.7,41.9-26.4c6.5-2.9,13.1-5.8,19.8-8.1c2.7-0.9,6.4-0.9,9,0.2c10.5,4,20.9,8.3,29.5,16.3c3.2,3,8.5,3.8,12.8,5.6
	c7.8,3.3,15.6,6.5,23.2,10c2.8,1.3,5.2,3.5,7.9,5.2c6.3,3.8,12.4,6.8,20.5,5c7.1-1.6,14.2,0.9,20.4,4.8c6.9,4.3,8,11.3,3.1,17.8
	c-1.2,1.6-2.4,3.2-3.5,4.6c4.7,8.2,4.1,11.5-2.4,18.8c-2.1,2.3-3.5,5.2-5.3,7.8c-3.2,4.3-4.6,4.3-7.9,0.2c-5.6-7-20.1-4.9-23.2,3.6
	c-0.6,1.5,0.8,4.9,2.3,5.8c2.8,1.8,6.3,2.7,9.7,3.3c2.7,0.5,5.7-0.1,8.5,0.2c2,0.2,4,0.9,6,1.4c-0.6,2.5-0.4,5.9-2,7.2
	c-3.9,3.5-5.8,7.3-5.7,12.6c0,3.4-2.4,5.7-6,4.9c-2.7-0.5-5.8-1.3-7.6-3.1c-5.1-5.1-11.1-5.8-17.5-4.6c-3.4,0.6-8.1,0.9-9.8,3.2
	c-4,5.4-4,12.5-2.2,18.7c2.5,8.8,6.2,17.4,9.6,26.6c-4.1-1.7-8.6-3.3-12.7-5.4c-11.1-5.7-22-11.7-33-17.6c-1.6-0.9-3.2-1.9-4.9-2.5
	c-5-1.8-7.6,0.2-7.6,5.5c0,0.8,0,1.5,0,3.1c-6.3-4.9-12.1-9.4-17.8-13.8c-7-5.3-8.2-5-12.1,2.8c-0.4,0.7-0.8,1.5-1.3,2.6
	c-5.1-5.5-9.9-10.9-14.9-16.1c-5.3-5.6-6.3-5.6-12.7-1.4c-2.9,1.9-5.6,4.1-8.7,6.5c-1-2.6-2-5.2-3.1-7.7c-1.4-3.1-3.4-4.5-7.1-3.2
	c-14.6,5-29.3,9.7-44,14.4c-0.8,0.2-1.5,0.5-3.6,1.2c11.6-16,26.6-26.5,40-38.8c0.4-0.3,0.8-0.6,1.3-0.9c-0.1-0.2-0.2-0.4-0.4-0.6
	C482.4,1104.7,481.9,1104.9,481.4,1105.2L481.4,1105.2z M584.7,1056.3c-7.3-2.9-15-6.1-22.8-9.2c-2.2-0.8-4.4-1.5-6.7-1.9
	c-8.7-1.7-14.1,1.6-17.7,10.6c-3,7.6-0.9,13.7,6.3,18.2c10,6.4,28.8,5.3,38.8-2.6c-3.7,0-7.1,0-10.5,0c-3.5,0-7.1,0.4-10.5-0.2
	c-5.3-0.9-10.8-1.9-15.7-4c-4.6-2-4.4-4.9-1.1-8.7c5.4-6.2,13.2-7.1,20.5-3.4C572.4,1058.7,578.8,1059.1,584.7,1056.3L584.7,1056.3z
	 M634.7,1044.8c-3.6,0.5-7-0.1-8.2,1.3c-3.3,3.7-7,5.3-11.7,5.5c-1.4,0.1-2.7,1.3-5.5,2.9c4.6,2.2,7.8,3.7,11,5.2
	c2.8,1.3,4.6,0.2,6.1-2.3C628.7,1053.5,631.3,1049.9,634.7,1044.8L634.7,1044.8z"/>
<path class="st17" d="M200.6,1233.6c-3.4-14.4-3.4-27.9,9.7-38.8c10,17.1,25.5,21.7,43.2,20.3c6.2,12.6,12.5,25.3,19,38.5
	c-13.7,8.5-15.7,24.2-19.5,38.9c-0.9,3.7-2.6,4.8-6.1,4.8c-10.9-0.1-18.4-5.8-24.2-14.3c-2.2-3.1-3.9-6.6-5.6-9.6
	c-6.3,0.7-12.5,1.6-18.7,1.8c-7.7,0.3-14.2-3.2-19.8-8.1c-1.1-0.9-1.4-3.6-1.1-5.2c2.5-10.6,9.4-18.1,17.8-24.5
	C197.1,1236.2,198.8,1234.9,200.6,1233.6L200.6,1233.6z"/>
<path class="st15" d="M442.5,1172.4c-4.2-0.3-8.4-0.7-12.6-1c-0.1-0.5-0.2-1.1-0.3-1.6c5.6-5.6,9.9-12.5,19.7-12.7
	c9.4-0.2,18.7-1.8,28.1-2.9c3.2-0.4,4.4,0.8,4.3,4.2c-0.1,2.9,0.5,5.9,1.2,8.8c1,4.2,4.1,4,7.1,2.4c4.5-2.5,8.9-5.2,13.1-8.1
	c4.3-3,7.7-2.7,11.2,1.4c5.2,6,10.9,11.7,16.2,17.6c4.2,4.6,5.8,4.7,9.5-0.5c1.6-2.2,3.1-4.6,4.9-7.3c9.3,6.8,18.2,13.6,27.3,19.9
	c2.7,1.9,6,2.8,9,4.1c0.4-3.2,0.9-6.3,1.2-9.5c0.1-1.4-0.1-2.9-0.2-5.3c9.3,5.5,18.8,10,26.7,16.2c5.1,4,7.6,10.9,7.5,19.4
	c-3.6-1.6-6.5-2.6-9.2-4c-5.1-2.7-10-6-15.3-8.3c-5.4-2.3-7.5-0.2-6.4,5.6c0.3,1.6,0.9,3.2,1.3,4.8c0.3,1.4,0.6,2.9,1.1,5.5
	c-4.1-2.8-7.4-5-10.5-7.3c-8.5-6.2-17-12.3-25.3-18.7c-3-2.3-5-1.8-7,1c-2.2,3.1-4.5,6.1-7.2,9.7c-6.1-6.7-11.9-13.1-17.7-19.4
	c-10-10.8-10.1-10.8-22.6-2.8c-3.9,2.5-8,4.8-12,7.1c-0.7,0.4-1.5,0.4-3,0.7c0-3.1,0.1-5.9,0-8.6c-0.2-7-2.4-9.2-9-9.6
	c-0.4,0-0.7-0.1-1.1-0.1c-7.3-0.1-14.6-0.2-21.9-0.2C447.9,1172.7,445.2,1172.5,442.5,1172.4L442.5,1172.4z"/>
<path class="st18" d="M544.1,1148.6c7.2,5.3,14,10.3,20.9,15.3c1.3,1,2.8,1.9,4.2,2.7c3.8,2,5.7,0.7,5.4-3.6
	c-0.1-1.9-0.6-3.8-0.8-5.4c19.8,9.9,39.7,19.8,59.5,29.7c-5.5,9.7-11.3,11.2-19.3,6.9c-7-3.7-13.9-7.8-20.8-11.8
	c-1.3-0.7-2.4-2.1-3.7-2.5c-3.4-0.8-7.2-2.3-10.2-1.4c-3.7,1.1-3.1,5.3-2.8,8.7c0,0.4-0.1,0.9-0.3,1.9c-7.7-5.7-15.2-11.1-22.7-16.6
	c-1.8-1.3-3.6-2.3-5.4-3.6c-2.9-2.1-5.3-1.4-7.4,1.1c-1.9,2.3-3.6,4.8-5.7,7.6c-3.8-4.1-7.5-8.1-11.3-11.9
	c-3.3-3.3-6.4-6.9-10.2-9.5c-2-1.4-5.8-1.7-8.1-0.7c-5.6,2.3-10.8,5.6-16.2,8.5c-4-15.9-5.7-17-22.6-14.3c-4.8,0.8-9.5,1.8-14.2,2.3
	c-3.3,0.4-6.7,0.1-10-1c15.9-5.8,31.7-11.7,48.3-17.8c1,3.1,2.2,5.7,2.9,8.5c1,4,3.3,4.8,6.6,3.1c3.4-1.8,6.8-3.6,9.7-6
	c3.6-3,5.9-2.1,8.7,0.9c4.7,5,9.6,9.7,14.5,14.4c4.4,4.2,5,4.1,8.5-1.1C542.3,1151.7,543,1150.4,544.1,1148.6L544.1,1148.6z"/>
<path class="st15" d="M732.7,1154.8c-6.6,7.4-13.2,14.9-19.8,22.4c-2.5-1.6-4.7-3-7.5-4.7c2.7-4.5,5.2-8.8,7.8-13.2
	c9.5-15.8,18.9-31.7,28.6-47.4c1.4-2.2,3.7-4.2,6.1-5.3c7.6-3.5,15.5-6.5,24.4-10.1c0,9.7,0,18.3-0.1,26.8c0,1-0.8,2.1-1.5,3
	c-14.6,19.2-29.2,38.4-43.9,57.5c-0.3,0.4-0.7,0.7-1.3,1.1c-1.9-1.2-3.8-2.4-5.9-3.7c4.8-8.8,9.4-17.2,14-25.7
	c0.5-0.9,1-1.8,1.6-2.7c-0.2-0.1-0.5-0.2-0.7-0.4C733.9,1153.3,733.3,1154,732.7,1154.8L732.7,1154.8z"/>
<path class="st18" d="M706.4,1193.3c-6-4-12-8.1-18-12.1c-1.5-1-3-2-4.9-3.3c2-3.2,3.8-6.2,5.9-9.6c15.7,10,31,19.7,46.9,29.8
	c-2.4,3.2-4.5,6.1-6.7,9C721.6,1202.4,713.9,1197.8,706.4,1193.3L706.4,1193.3L706.4,1193.3z"/>
<path class="st18" d="M685.7,1222.5c1.4-2.4,2.8-4.8,4.1-7.2c7.8,3.4,15.5,6.9,24.2,10.7c0.5,3.9-2,7.2-6.3,9.3
	c-4.6,2.2-10.3,0.8-13.9-3.4C691.1,1229,688.6,1225.9,685.7,1222.5L685.7,1222.5z"/>
<path class="st18" d="M630,1277.1c11.7-5.5,20.8-1.2,29.3,4.5c5.1,3.5,6.4,9,4.7,15.6C655.9,1285.5,643.5,1281.4,630,1277.1
	L630,1277.1z"/>
<path class="st18" d="M712.5,1204.5c2.7,1.5,5,2.9,7.4,4.1c3.3,1.6,4.4,4.8,3.1,7.5c-1,2-4.2,4.1-6.4,4.1c-3.3,0-6.7-1.5-10-2.7
	c-4.3-1.6-8.6-3.5-13.9-5.7C700.3,1209.7,709.6,1215.5,712.5,1204.5L712.5,1204.5z"/>
<path class="st19" d="M442.5,1172.4c2.7,0.1,5.4,0.3,8.1,0.4C447.9,1172.7,445.2,1172.6,442.5,1172.4z"/>
<path class="st19" d="M472.5,1173.1c0.4,0,0.7,0.1,1.1,0.1C473.2,1173.1,472.8,1173.1,472.5,1173.1z"/>
<path class="st16" d="M384.6,1316.2c0.2,0.1,0.3,0.3,0.5,0.4c-0.1,0-0.3,0-0.3,0C384.7,1316.5,384.7,1316.4,384.6,1316.2
	L384.6,1316.2L384.6,1316.2z"/>
<path class="st22" d="M583.5,289.8c0,6.6-5.4,12-12,12c-6.8,0-12.2-5.6-12.1-12.4c0.1-6.6,5.5-11.8,12.2-11.7
	C578.3,277.8,583.6,283.1,583.5,289.8L583.5,289.8z"/>
<path class="st22" d="M411.6,289.4c0.1-6.7,5.4-11.8,12.2-11.7c6.9,0.1,12.1,5.5,11.9,12.5c-0.2,6.5-6,11.8-12.5,11.6
	C416.7,301.5,411.5,295.9,411.6,289.4L411.6,289.4z"/>
<path class="st22" d="M273.5,331c-6.8,0-12-5.1-12-11.8c0-7,5.3-12.4,12.2-12.3c6.4,0.1,12,5.8,11.9,12.2
	C285.5,325.8,280.3,331,273.5,331L273.5,331z"/>
<path class="st23" d="M717.1,331.5c-6.1,0.2-12.3-5.8-12.5-12c-0.2-6.3,5.4-12.1,11.9-12.5c6.4-0.3,12.6,5.5,12.7,12.2
	C729.3,325.2,723.4,331.3,717.1,331.5L717.1,331.5z"/>
<path class="st23" d="M495.7,638.3c3.3,7.6,6.1,14.2,8.9,20.8c0.5,1.1,0.7,2.7,0.3,3.7c-2.8,6.9-5.8,13.7-9.2,21.8
	c-3.3-8.1-6.2-15.1-9-22.1c-0.3-0.8-0.1-2,0.2-2.9C489.6,652.8,492.5,646.1,495.7,638.3L495.7,638.3z"/>
<path class="st24" d="M462.8,640.2c1.1,2.6,1.7,4,2.3,5.3c6.1,14.2,6,15.6-2.6,30.2c-2.5-5.9-4.9-11.3-7-16.8
	c-0.4-1,0.3-2.5,0.8-3.7C458.2,650.5,460.3,645.8,462.8,640.2z"/>
<path class="st24" d="M531.2,640.4c2.5,6,4.7,11.2,6.8,16.4c0.3,0.8,0.4,2,0.1,2.8c-2.1,5.2-4.3,10.4-6.9,16.5
	c-2.6-6-4.9-11.1-7-16.2c-0.4-0.9-0.4-2.3,0-3.2C526.2,651.5,528.5,646.4,531.2,640.4L531.2,640.4z"/>
<path class="st24" d="M584.8,1056.3c-5.9,2.8-12.4,2.4-19.4-1.2c-7.3-3.7-15.1-2.8-20.5,3.4c-3.3,3.8-3.5,6.7,1.1,8.7
	c4.9,2.2,10.4,3.1,15.7,4c3.4,0.6,7,0.2,10.5,0.2c3.4,0,6.8,0,10.5,0c-10,7.8-28.8,8.9-38.8,2.6c-7.1-4.6-9.2-10.6-6.3-18.2
	c3.5-9,8.9-12.3,17.7-10.6c2.3,0.4,4.5,1.1,6.7,1.9C569.7,1050.2,577.5,1053.4,584.8,1056.3L584.8,1056.3z"/>
<path class="st24" d="M634.7,1044.8c-3.4,5.1-6,8.7-8.3,12.5c-1.5,2.5-3.3,3.6-6.1,2.3c-3.2-1.5-6.4-3-11-5.2
	c2.8-1.5,4.1-2.8,5.5-2.9c4.8-0.2,8.5-1.8,11.7-5.5C627.7,1044.8,631.1,1045.3,634.7,1044.8L634.7,1044.8z"/>
<path class="st13" d="M481.4,1105.2c0.5-0.3,1-0.6,1.5-0.8c0.1,0.2,0.2,0.4,0.4,0.6c-0.4,0.3-0.9,0.6-1.3,0.9
	C481.8,1105.7,481.6,1105.4,481.4,1105.2L481.4,1105.2z"/>
<path class="st13" d="M732.7,1154.8c0.6-0.8,1.1-1.5,1.7-2.2c0.2,0.1,0.5,0.2,0.7,0.4c-0.5,0.9-1.1,1.8-1.6,2.7
	C733.3,1155.4,733,1155.1,732.7,1154.8L732.7,1154.8z"/>
</svg>
