<svg width="988" height="1526" viewBox="0 0 988 1526" fill="none" xmlns="http://www.w3.org/2000/svg">
<mask id="mask0_1216_20" style="mask-type:luminance" maskUnits="userSpaceOnUse" x="0" y="0" width="988" height="1526">
<path d="M987.69 0H0V1525.9H987.69V0Z" fill="white"/>
</mask>
<g mask="url(#mask0_1216_20)">
<path d="M490.121 1525.9C489.078 1523.18 486.63 1521.62 484.677 1519.76C474.346 1509.93 464.004 1500.1 453.334 1490.65C444.733 1483.03 435.715 1475.84 425.955 1469.73C420.417 1466.26 414.592 1463.22 408.751 1460.27C400.969 1456.34 393.118 1452.52 385.159 1448.97C377.732 1445.65 370.16 1442.66 362.581 1439.7C356.355 1437.27 350.062 1435.01 343.739 1432.85C337.557 1430.73 331.31 1428.81 325.074 1426.86C318.414 1424.77 311.753 1422.68 305.055 1420.73C297.522 1418.53 289.95 1416.48 282.39 1414.38C272.724 1411.7 263.054 1409.03 253.381 1406.38C241.325 1403.07 229.207 1399.97 217.213 1396.44C203.969 1392.55 190.773 1388.47 177.67 1384.12C168.162 1380.96 158.782 1377.38 149.453 1373.72C141.607 1370.64 133.84 1367.33 126.176 1363.82C115.458 1358.91 104.969 1353.53 95.3404 1346.65C83.9618 1338.51 73.1606 1329.71 63.2409 1319.8C55.1871 1311.74 47.7413 1303.23 41.1071 1293.99C36.168 1287.11 31.8786 1279.84 28.6304 1272.01C26.898 1267.84 25.6468 1263.53 25.5396 1258.91C25.4653 1255.7 26.314 1252.92 28.0989 1250.3C31.2115 1245.73 34.3678 1241.18 37.2748 1236.48C42.3232 1228.32 47.2557 1220.08 52.1226 1211.8C59.1353 1199.88 65.3058 1187.51 71.3845 1175.1C74.7114 1168.3 77.8087 1161.39 80.8776 1154.48C86.7222 1141.31 92.0747 1127.94 96.9962 1114.4C100.47 1104.85 103.598 1095.16 106.761 1085.49C110.967 1072.63 114.628 1059.6 117.785 1046.44C120.329 1035.83 122.733 1025.18 124.885 1014.49C126.95 1004.22 128.741 993.889 130.404 983.545C131.441 977.083 132.02 970.548 132.794 964.042C133.26 960.138 133.685 956.229 134.17 952.329C135.739 939.745 136.34 927.08 136.835 914.435C137.357 901.053 137.156 887.64 137.132 874.24C137.121 867.545 136.891 860.845 136.598 854.152C136.047 841.496 135.264 828.846 133.827 816.26C132.523 804.836 131.01 793.429 129.288 782.059C127.219 768.39 124.623 754.804 121.573 741.319C118.524 727.841 115.077 714.463 111.181 701.196C106.301 684.575 100.783 668.176 94.5989 651.996C89.0386 637.448 82.9337 623.13 76.2491 609.069C70.5008 596.98 64.3171 585.107 57.7004 573.459C50.5783 560.923 43.0166 548.672 34.7419 536.865C32.1586 533.177 29.4485 529.579 26.6508 525.742C27.4011 525.136 27.9873 524.506 28.7048 524.112C32.911 521.8 37.1742 519.596 41.3652 517.255C47.0807 514.064 52.7635 510.809 58.4331 507.534C67.2504 502.442 76.0676 497.348 84.8411 492.186C90.3598 488.94 95.7997 485.56 101.277 482.244C109.364 477.349 117.47 472.482 125.537 467.554C131.248 464.065 136.909 460.498 142.592 456.963C147.905 453.66 153.218 450.357 158.527 447.047C164.327 443.432 170.17 439.88 175.907 436.165C182.27 432.047 188.891 428.523 195.873 425.506C208.431 420.082 221.212 415.246 234.017 410.481C244.632 406.531 255.422 403.049 266.184 399.503C274.052 396.911 281.972 394.468 289.917 392.121C298.841 389.483 307.783 386.9 316.78 384.528C327.18 381.785 337.616 379.143 348.1 376.744C357.882 374.506 367.743 372.614 377.579 370.628C382.571 369.619 387.571 368.626 392.6 367.83C401.798 366.376 411.007 364.982 420.233 363.738C428.599 362.611 436.981 361.557 445.385 360.767C452.63 360.087 459.916 359.848 467.18 359.374C479.252 358.584 491.342 358.32 503.425 358.637C514.189 358.919 524.955 359.459 535.697 360.225C545.422 360.918 555.138 361.891 564.817 363.075C573.335 364.116 581.798 365.61 590.28 366.92C595.025 367.653 599.791 368.281 604.498 369.199C613.492 370.954 622.465 372.83 631.424 374.755C640.095 376.619 648.777 378.459 657.384 380.587C665.995 382.715 674.531 385.158 683.083 387.521C689.387 389.262 695.691 391.016 701.949 392.915C708.349 394.857 714.704 396.95 721.056 399.044C726.719 400.91 732.366 402.826 737.997 404.79C744.723 407.135 751.458 409.46 758.123 411.964C766.695 415.186 775.247 418.47 783.726 421.93C790.047 424.511 796.239 427.414 802.482 430.19C803.145 430.485 803.779 430.85 804.394 431.239C811.89 435.988 819.353 440.789 826.878 445.494C834.647 450.355 842.471 455.123 850.274 459.933C855.475 463.14 860.659 466.371 865.878 469.549C874.326 474.691 882.78 479.825 891.258 484.917C899.362 489.784 907.484 494.625 915.632 499.422C921.525 502.891 927.455 506.299 933.402 509.676C939.85 513.338 946.336 516.938 952.811 520.554C953.825 521.12 954.88 521.617 955.897 522.179C957.662 523.154 959.414 524.154 961.085 525.095C961.14 526.729 960.162 527.503 959.506 528.378C950.577 540.264 942.541 552.73 934.964 565.513C926.424 579.923 918.607 594.712 911.465 609.852C901.716 630.521 893.093 651.653 885.74 673.299C880.542 688.591 875.855 704.029 871.815 719.673C868.906 730.947 866.375 742.295 863.932 753.678C861.453 765.218 859.723 776.879 857.715 788.494C856.626 794.798 856.129 801.205 855.362 807.565C854.926 811.181 854.458 814.79 854.043 818.408C852.584 831.147 852.006 843.954 851.26 856.744C850.853 863.719 850.751 870.721 850.768 877.71C850.799 890.092 850.88 902.479 851.219 914.855C851.433 922.708 852.118 930.55 852.664 938.391C852.977 942.893 853.343 947.394 853.85 951.879C855.047 962.439 856.024 973.039 857.687 983.53C859.531 995.166 861.477 1006.79 863.91 1018.34C865.887 1027.74 867.952 1037.11 870.242 1046.43C873.436 1059.43 877.078 1072.31 881.133 1085.08C885.978 1100.32 891.28 1115.4 897.131 1130.3C904.105 1148.05 911.865 1165.44 920.317 1182.52C927.288 1196.61 934.83 1210.39 942.928 1223.87C948.103 1232.48 953.318 1241.08 959.239 1249.19C962.542 1253.72 963.113 1258.44 962.015 1263.66C960.711 1269.85 958.161 1275.56 955.101 1281.03C947.08 1295.37 936.744 1307.9 925.145 1319.49C916.883 1327.74 908.129 1335.4 898.715 1342.27C892.61 1346.73 886.341 1351.01 879.823 1354.82C873.939 1358.27 867.698 1361.14 861.471 1363.94C852.855 1367.82 844.143 1371.49 835.395 1375.07C830.152 1377.21 824.782 1379.04 819.439 1380.93C813.272 1383.1 807.108 1385.29 800.881 1387.28C792.438 1389.98 783.964 1392.57 775.455 1395.05C766.246 1397.73 756.981 1400.22 747.739 1402.79C739.331 1405.13 730.923 1407.46 722.512 1409.78C713.126 1412.37 703.73 1414.93 694.352 1417.54C687.495 1419.46 680.638 1421.38 673.822 1423.44C667.566 1425.33 661.354 1427.37 655.144 1429.4C649.761 1431.17 644.376 1432.93 639.043 1434.84C632.479 1437.2 625.949 1439.66 619.438 1442.15C615.233 1443.77 611.036 1445.42 606.922 1447.25C599.616 1450.49 592.301 1453.72 585.129 1457.24C578.735 1460.38 572.51 1463.86 566.252 1467.27C560.357 1470.48 554.943 1474.44 549.643 1478.52C538.796 1486.87 528.441 1495.81 518.559 1505.29C512.264 1511.33 505.966 1517.36 499.708 1523.44C499.004 1524.13 498.558 1525.08 497.993 1525.91H490.123L490.121 1525.9ZM493.746 1456.5C494.618 1456.02 495.285 1455.73 495.878 1455.33C498.766 1453.37 501.611 1451.34 504.514 1449.4C518.056 1440.33 531.646 1431.34 545.155 1422.22C554.355 1416.02 564.143 1410.89 574.221 1406.33C581.629 1402.97 589.186 1399.94 596.744 1396.92C602.547 1394.61 608.422 1392.47 614.317 1390.41C620.761 1388.16 627.249 1386.02 633.754 1383.94C640.683 1381.73 647.637 1379.58 654.615 1377.52C660.744 1375.72 666.93 1374.09 673.076 1372.35C680.489 1370.24 687.878 1368.04 695.299 1365.97C707.341 1362.6 719.452 1359.47 731.441 1355.92C742.87 1352.54 754.192 1348.79 765.536 1345.13C770.238 1343.61 774.886 1341.93 779.543 1340.27C787.903 1337.31 796.082 1333.9 804.059 1330.03C812.964 1325.71 821.53 1320.78 829.995 1315.65C840.717 1309.15 851.002 1302.05 860.541 1293.91C867.762 1287.75 874.442 1281.07 879.803 1273.17C883.425 1267.84 886.479 1262.21 887.726 1255.82C889.257 1247.99 888.469 1240.53 883.92 1233.64C873.563 1217.95 864.417 1201.57 856.455 1184.53C851.216 1173.32 846.334 1161.94 842.019 1150.36C836.889 1136.59 832.283 1122.64 828.197 1108.52C824.071 1094.24 820.408 1079.86 817.293 1065.34C815.125 1055.24 813.181 1045.09 811.245 1034.94C810.236 1029.65 809.381 1024.33 808.607 1019C807.73 1012.95 807.084 1006.86 806.223 1000.81C804.724 990.28 803.6 979.715 802.955 969.095C802.53 962.12 801.968 955.153 801.432 948.186C800.94 941.797 800.365 935.416 799.892 929.027C799.26 920.461 798.659 911.891 798.11 903.319C797.692 896.781 797.289 890.241 797.04 883.696C796.817 877.878 796.646 872.047 796.747 866.228C796.928 855.895 797.248 845.56 797.677 835.233C798.009 827.234 798.51 819.237 799.101 811.253C799.562 805.011 800.194 798.779 800.907 792.558C801.754 785.182 802.697 777.815 803.736 770.464C804.51 764.989 805.446 759.535 806.419 754.091C808.007 745.21 809.473 736.301 811.378 727.488C813.622 717.109 816.195 706.798 818.778 696.496C822.886 680.117 827.91 664.003 833.534 648.092C839.208 632.039 845.466 616.213 852.579 600.722C861.272 581.791 870.481 563.161 882.391 545.988C883.018 545.083 883.355 543.974 883.904 542.797C877.054 538.416 870.459 534.168 863.831 529.972C856.333 525.228 848.786 520.562 841.295 515.805C833.803 511.047 826.372 506.194 818.881 501.432C807.953 494.487 797.003 487.579 786.046 480.68C784.587 479.762 783.039 478.985 781.704 478.241C779.185 479.103 776.975 479.823 774.792 480.612C764.947 484.173 755.135 487.831 745.257 491.298C738.953 493.511 732.568 495.497 726.194 497.503C719.538 499.599 712.881 501.71 706.166 503.604C696.789 506.253 687.401 508.88 677.938 511.198C668.196 513.585 658.443 515.919 648.61 517.959C639.065 519.941 629.502 521.814 619.917 523.557C611.187 525.145 602.4 526.407 593.638 527.809C591.481 528.155 589.333 528.566 587.165 528.813C579.79 529.651 572.398 530.362 565.027 531.241C551.426 532.862 537.797 534.047 524.097 534.33C522.35 534.365 520.591 534.325 518.859 534.515C511.317 535.342 503.742 535.39 496.176 535.434C479.574 535.533 462.969 535.592 446.389 534.402C438.259 533.818 430.083 533.772 421.97 533.015C410.232 531.919 398.517 530.521 386.823 529.014C377.735 527.844 368.683 526.376 359.637 524.909C354.899 524.141 350.229 522.947 345.486 522.201C335.705 520.661 326.117 518.233 316.489 516.017C308.557 514.191 300.698 512.025 292.852 509.851C285.57 507.832 278.308 505.728 271.112 503.431C264.749 501.399 258.511 498.984 252.178 496.851C242.11 493.459 232.256 489.533 222.588 485.138C218.222 483.154 213.843 481.186 209.59 478.976C207.628 477.957 206.128 478.106 204.345 479.259C198.973 482.734 193.507 486.063 188.104 489.493C178.278 495.732 168.486 502.027 158.651 508.252C151.028 513.077 143.351 517.811 135.719 522.621C127.228 527.973 118.734 533.326 110.302 538.77C108.27 540.082 106.08 541.239 104.398 542.843C104.554 544.687 105.529 545.791 106.354 546.973C115.287 559.788 122.584 573.558 129.363 587.572C138.171 605.78 146.129 624.376 152.741 643.511C156.35 653.956 159.815 664.453 163.131 674.992C167.149 687.762 170.601 700.698 173.554 713.752C175.769 723.54 177.773 733.377 179.772 743.213C180.612 747.348 181.076 751.556 181.912 755.69C184.368 767.841 185.626 780.164 187.091 792.446C188.264 802.272 188.806 812.172 189.574 822.044C190.67 836.135 191.153 850.252 191.07 864.384C191.02 873.267 190.867 882.15 190.67 891.033C190.589 894.67 190.324 898.306 190.062 901.935C189.206 913.843 188.305 925.746 187.441 937.654C186.829 946.078 186.271 954.506 185.643 962.929C184.867 973.382 184.182 983.847 182.782 994.245C181.597 1003.05 180.658 1011.89 179.258 1020.66C177.653 1030.72 175.673 1040.72 173.827 1050.74C170.979 1066.21 167.274 1081.48 163.24 1096.68C159.506 1110.74 155.235 1124.66 150.442 1138.4C144.449 1155.58 137.556 1172.42 129.632 1188.81C122.72 1203.09 115.077 1217 106.319 1230.27C104.799 1232.57 103.186 1234.84 101.975 1237.31C99.1573 1243.05 99.0939 1249.12 100.413 1255.25C102.106 1263.11 106.131 1269.87 110.927 1276.14C117.144 1284.27 124.533 1291.29 132.499 1297.68C140.907 1304.43 149.773 1310.52 158.973 1316.16C170.404 1323.16 182.17 1329.5 194.469 1334.82C198.468 1336.55 202.543 1338.12 206.648 1339.58C212.263 1341.57 217.966 1343.32 223.585 1345.3C235.939 1349.65 248.543 1353.16 261.14 1356.71C271.91 1359.74 282.712 1362.66 293.495 1365.65C302.743 1368.21 312.002 1370.75 321.229 1373.38C331.99 1376.46 342.752 1379.54 353.459 1382.81C359.713 1384.71 365.862 1386.97 372.048 1389.09C376.582 1390.65 381.132 1392.18 385.624 1393.85C391.618 1396.08 397.635 1398.26 403.508 1400.78C410.587 1403.81 417.525 1407.17 424.522 1410.4C431.537 1413.63 438.244 1417.43 444.681 1421.68C449.535 1424.89 454.297 1428.24 459.028 1431.62C468.022 1438.06 476.96 1444.58 485.934 1451.04C488.52 1452.91 491.156 1454.69 493.732 1456.49L493.746 1456.5ZM241.222 444.438C242.908 445.352 243.744 445.897 244.649 446.282C256.562 451.341 268.581 456.114 280.837 460.307C289.228 463.177 297.629 465.992 306.153 468.429C314.402 470.787 322.629 473.245 330.956 475.291C339.705 477.441 348.553 479.189 357.373 481.043C361.929 482.001 366.507 482.874 371.094 483.677C377.113 484.729 383.151 485.674 389.179 486.669C391.478 487.048 393.761 487.54 396.071 487.809C403.012 488.616 409.978 489.202 416.901 490.121C430.632 491.941 444.427 492.776 458.251 493.332C462.615 493.507 466.979 493.695 471.345 493.804C479.204 494.001 487.067 494.336 494.924 494.257C504.822 494.157 514.714 493.647 524.609 493.411C535.677 493.146 546.719 492.527 557.734 491.387C570.913 490.025 584.105 488.802 597.194 486.693C603.371 485.698 609.553 484.722 615.717 483.653C620.448 482.833 625.173 481.96 629.871 480.973C638.691 479.121 647.545 477.388 656.284 475.201C666.011 472.764 675.661 470.002 685.277 467.143C692.377 465.032 699.335 462.442 706.409 460.237C715.858 457.291 724.975 453.456 734.221 449.972C737.62 448.69 740.926 447.161 744.266 445.724C745.055 445.383 745.924 445.042 745.648 443.681C744.837 443.314 743.944 442.841 743.001 442.502C740.952 441.761 738.872 441.107 736.816 440.385C729.823 437.928 722.873 435.345 715.839 433.018C702.597 428.639 689.273 424.511 675.799 420.885C664.285 417.785 652.771 414.688 641.11 412.172C636.987 411.282 632.909 410.188 628.784 409.316C623.806 408.261 618.799 407.338 613.805 406.365C611.237 405.864 608.674 405.337 606.093 404.901C600.353 403.935 594.609 402.996 588.861 402.089C585.269 401.52 581.671 400.982 578.066 400.507C573.882 399.956 569.686 399.497 565.497 398.983C560.729 398.396 555.976 397.629 551.19 397.228C542.195 396.478 533.192 395.778 524.178 395.347C514.727 394.894 505.26 394.673 495.799 394.553C489.981 394.481 484.156 394.713 478.34 394.945C468.302 395.343 458.26 395.728 448.235 396.351C442.286 396.721 436.36 397.524 430.428 398.16C426.231 398.611 422.031 399.068 417.842 399.597C412.212 400.308 406.564 400.934 400.969 401.872C390.784 403.578 380.631 405.477 370.468 407.312C366.177 408.088 361.863 408.771 357.613 409.742C348.538 411.814 339.48 413.968 330.448 416.232C322.27 418.282 314.109 420.416 305.996 422.704C299.005 424.677 292.071 426.854 285.148 429.059C277.396 431.528 269.675 434.103 261.96 436.69C256.31 438.585 250.686 440.555 245.069 442.542C244.022 442.913 243.059 443.524 241.22 444.442L241.222 444.438Z" fill="#808080"/>
<path d="M646.634 0.000428814C647.15 0.243225 647.642 0.608514 648.183 0.71132C653.325 1.68688 658.478 2.59245 663.621 3.56363C674.483 5.61319 685.346 7.6518 696.195 9.76698C706.758 11.8253 717.301 13.9951 727.861 16.0688C732.429 16.9656 737.029 17.6961 741.598 18.5864C752.445 20.7016 763.286 22.8605 774.124 25.0216C776.668 25.5291 779.345 25.4941 781.99 26.8655C781.841 27.8192 781.747 28.7817 781.537 29.72C779.605 38.3842 777.67 47.0439 775.708 55.7015C773.137 67.0495 770.541 78.3931 767.958 89.7389C767.862 90.1633 767.803 90.6007 767.673 91.0142C767.253 92.3659 766.462 92.8778 765.016 92.5978C757.163 91.0885 749.319 89.5311 741.465 88.0284C738.337 87.4291 735.191 86.9282 731.84 86.3441C731.416 87.4181 730.911 88.2953 730.72 89.238C728.08 102.369 725.477 115.506 722.876 128.643C721.437 135.921 720.002 143.198 718.604 150.484C718.279 152.184 718.11 153.914 717.841 155.823C718.919 156.287 719.786 156.797 720.722 157.046C730.272 159.583 739.872 161.935 749.378 164.621C763.224 168.534 777.042 172.55 790.794 176.778C798.57 179.169 806.221 181.986 813.864 184.786C816.854 185.882 819.665 187.466 822.57 188.804C822.944 188.977 823.383 189.01 824.046 189.167C824.254 188.881 824.584 188.562 824.75 188.174C834.11 166.248 843.454 144.318 852.871 122.221C852.178 121.725 851.664 121.202 851.04 120.935C843.962 117.895 836.862 114.902 829.783 111.864C829.022 111.538 828.346 111.007 827.522 110.501C827.756 109.655 827.878 108.95 828.139 108.303C836.083 88.4571 844.038 68.6178 852.016 48.785C852.162 48.4198 852.571 48.1573 852.884 47.8182C853.341 47.897 853.794 47.8882 854.175 48.0501C898.644 67.1348 943.106 86.2326 987.411 105.26C988.211 107.599 987.087 109.274 986.368 110.958C985.055 114.032 983.568 117.033 982.142 120.058C975.51 134.14 968.877 148.222 962.239 162.302C961.504 163.86 960.743 165.404 959.903 167.145C958.765 166.863 957.761 166.745 956.862 166.371C952.168 164.413 947.494 162.405 942.824 160.386C938.688 158.597 934.571 156.766 930.441 154.962C930.043 154.787 929.612 154.688 929.205 154.535C926.123 153.371 925.793 153.468 924.476 156.235C923.037 159.255 921.652 162.3 920.237 165.334C915.193 176.146 910.147 186.956 905.103 197.766C898.519 211.877 891.948 225.992 885.349 240.096C879.06 253.535 872.732 266.959 866.444 280.398C864.471 284.615 862.57 288.865 860.619 293.093C860.199 294.003 859.698 294.874 859.09 296.039C858.219 295.668 857.333 295.517 856.762 295.009C847.449 286.741 836.897 280.365 826.023 274.404C815.544 268.658 804.649 263.815 793.629 259.303C783.554 255.175 773.223 251.645 762.916 248.11C754.814 245.33 746.622 242.782 738.387 240.419C726.236 236.935 714.057 233.527 701.803 230.43C692.929 228.188 683.915 226.506 674.967 224.563C671.697 223.852 668.451 223.017 665.165 222.396C659.45 221.315 653.714 220.342 647.981 219.349C644.541 218.754 641.098 218.167 637.646 217.649C628.582 216.288 619.528 214.829 610.438 213.67C602.933 212.712 595.38 212.126 587.849 211.371C583.214 210.908 578.583 210.38 573.941 209.982C566.548 209.35 559.157 208.624 551.749 208.256C538.226 207.587 524.706 206.738 511.151 206.837C505.624 206.876 500.094 206.406 494.569 206.478C483.068 206.627 471.564 206.83 460.072 207.292C448.728 207.747 437.396 208.486 426.067 209.217C420.984 209.545 415.92 210.153 410.848 210.641C404.329 211.268 397.8 211.822 391.295 212.559C384.064 213.379 376.852 214.37 369.634 215.291C365.594 215.807 361.551 216.31 357.516 216.857C354.055 217.325 350.597 217.817 347.148 218.353C340.966 219.311 334.78 220.243 328.618 221.315C324.322 222.063 320.051 222.977 315.787 223.896C306.27 225.952 296.727 227.908 287.26 230.187C278.362 232.328 269.514 234.708 260.708 237.206C250.781 240.023 240.908 243.033 231.047 246.069C225.909 247.651 220.784 249.313 215.757 251.216C205.293 255.177 194.807 259.106 184.507 263.468C177.288 266.525 170.284 270.121 163.335 273.768C157.806 276.668 152.462 279.938 147.114 283.171C141.875 286.336 137.021 290.05 132.367 294.025C131.398 294.852 130.612 295.998 128.854 295.924C127.268 292.618 125.619 289.25 124.026 285.851C118.536 274.131 113.063 262.4 107.586 250.672C102.787 240.393 97.9858 230.115 93.1911 219.834C88.462 209.687 83.7461 199.535 79.0148 189.388C75.2657 181.345 71.5013 173.311 67.7477 165.268C66.2713 162.105 64.8342 158.923 63.3402 155.769C62.345 153.664 61.656 153.321 59.6042 154.174C54.908 156.13 50.2511 158.186 45.5789 160.202C40.7733 162.276 35.9786 164.374 31.1555 166.404C30.2652 166.778 29.2568 166.874 28.1303 167.139C26.4745 163.685 24.8909 160.432 23.3488 157.158C18.2697 146.37 13.2082 135.575 8.13572 124.783C5.53714 119.251 2.90356 113.736 0.355289 108.183C0.0228105 107.459 0.101555 106.549 -0.0078125 105.748C0.539027 105.409 0.878067 105.136 1.26304 104.972C45.6117 85.946 89.9647 66.927 134.322 47.921C134.563 47.8182 134.884 47.9079 135.392 47.9079C136.409 49.1678 136.975 50.7974 137.612 52.3964C144.183 68.8715 150.76 85.3423 157.333 101.815C158.195 103.976 159.09 106.127 159.901 108.305C160.721 110.51 160.507 110.893 158.241 111.868C155.303 113.131 152.372 114.406 149.432 115.659C145.29 117.426 141.136 119.168 136.997 120.948C136.477 121.171 136.024 121.556 135.663 121.788C135.551 122.086 135.484 122.212 135.457 122.346C135.431 122.488 135.394 122.656 135.444 122.779C144.66 144.467 153.881 166.15 163.116 187.829C163.281 188.214 163.628 188.524 163.913 188.848C164.002 188.949 164.169 188.981 164.479 189.132C164.873 188.968 165.4 188.774 165.903 188.533C177.361 183.095 189.352 179.116 201.481 175.505C210.121 172.933 218.721 170.223 227.392 167.751C237.034 164.999 246.728 162.429 256.412 159.822C260.06 158.84 263.744 157.989 267.403 157.037C268.221 156.825 268.995 156.449 269.798 156.147C270.345 154.391 269.921 152.792 269.628 151.274C268.44 145.134 267.058 139.031 265.852 132.893C263.89 122.901 262.029 112.89 260.089 102.894C259.174 98.1777 258.186 93.4749 257.206 88.7699C257.061 88.0809 256.77 87.4225 256.488 86.576C253.17 86.5213 250.081 87.3635 246.98 87.9387C238.976 89.4239 230.997 91.0426 223.002 92.5847C221.44 92.8865 220.602 92.2784 220.217 90.5832C219.511 87.4641 218.888 84.3252 218.174 81.2082C214.541 65.3215 210.884 49.4391 207.253 33.5501C206.77 31.4393 206.393 29.3044 205.993 27.2965C207.032 25.9775 208.408 25.9053 209.644 25.6603C217.205 24.1554 224.774 22.6877 232.349 21.2506C242.78 19.2732 253.225 17.3768 263.65 15.371C273.646 13.4505 283.62 11.4097 293.614 9.4695C304.181 7.41776 314.757 5.41414 325.333 3.40614C330.331 2.45683 335.34 1.56001 340.336 0.608514C340.736 0.531956 341.089 0.203853 341.463 -0.00832061C344.669 -0.00832061 347.874 -0.00832061 351.08 -0.00832061C351.358 0.654448 351.765 1.29534 351.892 1.98436C352.682 6.27814 353.432 10.5785 354.154 14.8854C356.273 27.5108 358.382 40.1384 360.475 52.7704C361.07 56.3599 361.632 59.9581 362.138 63.5606C362.334 64.9737 361.72 65.8202 360.359 66.1002C358.795 66.4217 357.192 66.5573 355.621 66.8592C350.195 67.9069 344.779 69.0028 339.352 70.0593C337.497 70.4202 335.625 70.6783 333.772 71.0523C332.648 71.2776 332.061 72.181 332.289 73.3294C333.748 80.7489 335.216 88.1662 336.716 95.577C338.534 104.556 340.389 113.526 342.217 122.501C343.175 127.202 344.087 131.911 345.085 136.603C345.251 137.384 345.759 138.09 346.174 138.974C364.15 134.858 382.102 132.025 400.228 130.419C418.484 128.803 436.79 129.166 455.236 129.831C455.424 128.414 455.697 127.278 455.708 126.141C455.907 106.625 456.08 87.1119 456.238 67.5963C456.242 67.0495 456.03 66.5026 455.936 66.0367C454.437 65.1005 452.943 65.4483 451.526 65.444C442.785 65.4111 434.045 65.444 425.304 65.4111C423.884 65.4068 422.395 65.7371 420.783 64.7199C420.647 63.6284 420.393 62.362 420.35 61.0867C420.013 50.9024 419.711 40.7159 419.411 30.5316C419.304 26.8918 419.265 23.2498 419.14 19.6123C418.917 13.0699 418.652 6.52969 418.407 -0.0126953C468.828 -0.0126953 519.251 -0.0126953 569.672 -0.0126953C569.446 4.34452 569.147 8.69736 569.009 13.0568C568.615 25.5663 568.289 38.0757 567.937 50.5874C567.828 54.5159 567.74 58.4466 567.605 62.3751C567.576 63.2128 567.373 64.044 567.25 64.8709C565.689 65.6321 564.219 65.4155 562.795 65.4199C554.056 65.4374 545.32 65.4199 536.581 65.4396C535.164 65.444 533.747 65.5796 532.31 65.6561C531.568 67.4498 531.787 69.0618 531.798 70.6236C531.876 82.2713 531.997 93.9168 532.095 105.564C532.154 112.553 532.178 119.544 532.259 126.532C532.272 127.644 531.907 128.884 533.156 129.969C535.28 129.829 537.583 129.553 539.889 129.544C551.681 129.501 563.475 129.359 575.263 129.593C581.505 129.717 587.748 130.395 593.962 131.078C600.468 131.791 606.929 132.893 613.428 133.661C619.506 134.378 625.504 135.439 631.456 136.87C634.949 137.71 638.53 138.184 642.189 138.845C642.546 137.756 642.893 136.964 643.066 136.133C644.475 129.299 645.862 122.462 647.235 115.622C649.265 105.503 651.271 95.3779 653.299 85.2592C654.069 81.4117 654.885 77.5728 655.657 73.7253C655.996 72.0301 655.471 71.2448 653.8 70.9517C652.369 70.698 650.919 70.5514 649.491 70.2824C642.491 68.9612 635.489 67.6379 628.503 66.2467C627.575 66.063 626.727 65.4833 625.861 65.094C625.902 64.2343 625.876 63.6503 625.966 63.086C627.247 55.0409 628.509 46.9936 629.848 38.9573C631.567 28.6264 633.313 18.2977 635.135 7.98428C635.61 5.29602 635.642 2.48089 636.999 -0.00832061C640.221 0.000428815 643.427 0.000428814 646.634 0.000428814Z" fill="#808080"/>
<path d="M190.848 415.775C187.563 410.765 185.627 405.107 183.006 399.807C180.364 394.465 178.028 388.971 175.541 383.55C172.993 377.997 170.429 372.447 167.861 366.902C165.355 361.491 162.835 356.084 160.317 350.677C157.802 345.276 155.28 339.88 152.701 334.348C151.666 334.475 150.83 334.538 150.01 334.685C146.235 335.359 142.516 335.455 138.809 334.153C133.734 332.371 129.602 326.159 130.16 320.797C130.479 317.718 131.398 314.811 133.229 312.262C135.44 309.185 137.835 306.3 140.692 303.749C147.692 297.504 155.452 292.386 163.664 287.956C170.311 284.369 177.09 281.016 183.881 277.702C187.534 275.919 191.286 274.305 195.079 272.842C203.891 269.44 212.77 266.214 221.596 262.848C232.336 258.751 243.395 255.64 254.378 252.313C262.443 249.87 270.63 247.812 278.806 245.762C287.553 243.57 296.322 241.451 305.138 239.559C315.797 237.271 326.427 234.821 337.241 233.296C341.995 232.627 346.684 231.538 351.424 230.757C357.597 229.74 363.77 228.703 369.973 227.918C384.994 226.015 400.023 224.156 415.07 222.478C421.142 221.8 427.269 221.618 433.374 221.253C442.381 220.715 451.393 220.212 460.403 219.702C464.034 219.496 467.667 219.155 471.3 219.14C486.45 219.076 501.606 218.871 516.751 219.192C527.802 219.426 538.835 220.395 549.876 221.049C555.69 221.393 561.509 221.693 567.314 222.134C572.831 222.554 578.343 223.06 583.842 223.657C592.672 224.615 601.494 225.656 610.313 226.71C612.77 227.003 615.206 227.474 617.652 227.857C626.854 229.302 636.082 230.595 645.25 232.231C654.555 233.894 663.844 235.657 673.119 237.509C687.822 240.445 702.357 244.03 716.886 247.661C724.075 249.459 731.169 251.646 738.284 253.733C744.276 255.492 750.267 257.266 756.201 259.204C761.864 261.052 767.475 263.064 773.072 265.112C778.532 267.109 783.989 269.132 789.364 271.346C795.009 273.671 800.62 276.101 806.132 278.726C812.427 281.722 818.674 284.837 824.799 288.164C833.386 292.83 841.508 298.219 848.676 304.924C851.342 307.417 853.694 310.221 855.505 313.402C857.753 317.348 858.777 321.596 857.091 325.964C855.05 331.253 851.205 334.606 845.371 335.009C842.93 335.177 840.449 334.801 837.991 334.628C837.286 334.578 836.593 334.376 835.672 334.201C831.846 340.844 829.138 347.899 825.888 354.682C822.681 361.375 819.648 368.151 816.531 374.886C813.355 381.752 810.172 388.616 806.989 395.478C803.875 402.193 800.755 408.906 797.676 415.543C796.947 415.543 796.483 415.67 796.129 415.525C788.32 412.338 780.551 409.059 772.718 405.934C767.455 403.836 762.118 401.924 756.796 399.975C750.654 397.724 744.514 395.458 738.333 393.319C732.431 391.278 726.49 389.351 720.543 387.453C713.622 385.243 706.699 383.032 699.73 380.982C691.921 378.686 684.075 376.507 676.216 374.394C667.513 372.054 658.811 369.691 650.044 367.615C641.273 365.54 632.44 363.7 623.597 361.952C612.039 359.669 600.448 357.547 588.862 355.419C586.003 354.894 583.1 354.605 580.215 354.22C571.991 353.124 563.775 351.961 555.54 350.976C550.916 350.425 546.261 350.123 541.613 349.806C534.784 349.34 527.95 348.951 521.119 348.55C510.651 347.936 500.173 347.354 489.687 347.691C478.923 348.036 468.163 348.61 457.408 349.207C450.579 349.585 443.755 350.128 436.941 350.714C433.026 351.051 429.128 351.589 425.23 352.094C417.436 353.102 409.634 354.06 401.86 355.211C396.823 355.957 391.829 356.996 386.82 357.925C377.812 359.594 368.79 361.198 359.806 362.987C354.244 364.094 348.732 365.465 343.206 366.762C332.593 369.258 322.033 371.953 311.492 374.746C299.542 377.914 287.676 381.356 275.882 385.029C263.805 388.791 251.805 392.814 239.862 396.976C230.813 400.131 221.885 403.637 212.936 407.071C205.624 409.877 198.357 412.811 190.85 415.775H190.848ZM670.398 298.576C671.058 299.541 671.347 300.013 671.686 300.446C673.572 302.85 675.534 305.195 677.349 307.649C683.491 315.95 689.498 324.354 695.736 332.581C698.54 336.279 701.793 339.633 704.798 343.181C707.482 346.352 710.936 346.726 714.711 346.066C714.998 346.015 715.289 345.978 715.569 345.897C722.262 343.94 728.971 342.032 735.642 340C742.036 338.051 748.383 335.956 754.76 333.952C759.018 332.613 763.29 331.323 767.818 329.932C767.488 329.348 767.287 328.825 766.948 328.416C759.766 319.804 753.325 310.635 746.655 301.636C742.414 295.912 738.085 290.255 733.022 285.198C730.801 282.98 728.321 281.86 725.189 282.293C724.325 282.414 723.454 282.49 722.595 282.641C714.834 284.008 707.425 286.675 699.969 289.074C692.092 291.609 684.414 294.755 676.341 296.704C674.525 297.141 672.767 297.821 670.398 298.576ZM520.535 282.114C521.408 282.827 522.036 283.391 522.714 283.886C525.177 285.681 527.74 287.353 530.116 289.256C537.829 295.435 545.399 301.794 553.177 307.885C556.946 310.836 561.025 313.395 565.022 316.044C568.069 318.063 571.293 318.111 574.554 316.506C575.206 316.184 575.86 315.869 576.51 315.543C583.805 311.89 590.542 307.314 597.397 302.935C603.274 299.182 609.152 295.428 615.029 291.677C616.254 290.894 617.512 290.159 618.706 289.334C619.94 288.481 621.635 288.33 622.794 286.753C621.488 285.806 620.34 284.96 619.176 284.133C618.109 283.376 616.98 282.698 615.954 281.886C608.767 276.204 601.636 270.447 594.409 264.812C588.91 260.525 583.435 256.207 577.376 252.681C574.331 250.909 571.566 250.708 568.32 252.23C560.918 255.706 554.151 260.214 547.304 264.604C539.233 269.779 531.546 275.554 523.077 280.112C522.231 280.57 521.537 281.313 520.535 282.116V282.114ZM472.289 281.762C471.287 281.095 470.368 280.427 469.395 279.85C468.146 279.111 466.796 278.529 465.585 277.735C456.588 271.846 447.653 265.868 438.623 260.033C433.988 257.038 429.233 254.24 424.165 251.983C421.409 250.756 418.935 250.78 416.273 252.239C412.178 254.485 408.394 257.176 404.671 259.954C393.607 268.211 383.32 277.468 371.942 285.323C371.305 285.762 370.881 286.508 370.513 286.935C378.81 292.195 386.908 297.316 394.992 302.461C400.264 305.814 405.458 309.292 410.798 312.533C413.521 314.187 416.443 315.535 419.353 316.847C421.868 317.982 424.458 317.919 426.888 316.471C429.259 315.06 431.722 313.756 433.92 312.107C439.5 307.92 444.993 303.611 450.45 299.265C457.38 293.746 464.012 287.845 471.458 282.991C471.777 282.783 471.926 282.311 472.287 281.76L472.289 281.762ZM220.102 329.916C226.511 331.782 232.445 333.263 238.207 335.243C247.833 338.552 257.493 341.741 267.307 344.443C270.529 345.329 273.723 346.339 277.137 346.287C278.675 346.263 280.025 345.895 281.14 344.86C282.846 343.277 284.69 341.794 286.149 340.002C290.377 334.814 294.52 329.551 298.556 324.212C303.816 317.249 308.939 310.184 314.13 303.169C315.219 301.695 316.352 300.254 317.634 298.578C316.615 298.191 315.965 297.893 315.289 297.699C311.798 296.693 308.263 295.826 304.809 294.702C294.855 291.463 284.964 288.033 274.985 284.874C271.395 283.737 267.642 283.089 263.936 282.344C260.218 281.596 257.04 282.683 254.498 285.537C254.111 285.972 253.66 286.353 253.291 286.799C250.145 290.612 246.904 294.352 243.894 298.272C236.717 307.618 230.159 317.433 222.56 326.465C221.74 327.44 221.075 328.545 220.106 329.919L220.102 329.916Z" fill="#808080"/>
<path d="M196.345 968.781C196.297 967.774 196.17 966.921 196.229 966.079C197.093 954.025 197.97 941.972 198.867 929.922C199.687 918.887 200.632 907.86 201.332 896.819C201.719 890.718 201.804 884.596 201.866 878.48C202.021 863.039 201.916 847.597 201.166 832.171C200.776 824.179 199.963 816.206 199.319 808.224C199.004 804.307 198.593 800.396 198.302 796.476C197.436 784.848 195.601 773.345 193.899 761.822C191.856 747.993 189.135 734.3 186.215 720.634C182.225 701.969 177.328 683.556 171.617 665.359C165.166 644.807 157.773 624.6 149.144 604.848C144.891 595.114 140.469 585.466 135.63 576.014C131.059 567.081 126.273 558.26 120.938 549.746C120.26 548.664 119.337 547.649 119.435 545.846C128.902 539.437 138.867 533.459 148.63 527.173C158.291 520.952 168.082 514.928 177.796 508.786C187.628 502.57 197.434 496.312 207.435 489.955C208.896 490.701 210.274 491.486 211.715 492.129C222.998 497.18 234.394 501.94 246.002 506.205C256.243 509.967 266.605 513.349 277.021 516.562C284.657 518.92 292.391 520.97 300.128 522.984C308.571 525.182 317.054 527.232 325.545 529.244C329.644 530.216 333.792 531.001 337.934 531.784C347.937 533.678 357.933 535.618 367.965 537.353C373.553 538.32 379.208 538.91 384.829 539.674C389.733 540.341 394.631 541.067 399.544 541.671C403.444 542.15 407.352 542.594 411.27 542.867C424.632 543.803 438.006 544.586 451.364 545.566C464.305 546.518 477.26 546.485 490.22 546.516C500.853 546.542 511.471 546.052 522.079 545.422C531.811 544.845 541.529 544.029 551.252 543.303C556.478 542.913 561.71 542.572 566.924 542.06C571.559 541.605 576.179 540.971 580.797 540.363C587.144 539.527 593.494 538.705 599.827 537.76C606.012 536.837 612.19 535.828 618.349 534.746C627.514 533.138 636.668 531.476 645.809 529.745C649.237 529.096 652.618 528.201 656.018 527.405C664.653 525.381 673.317 523.476 681.912 521.289C691.066 518.959 700.187 516.481 709.258 513.848C718.884 511.052 728.459 508.071 738.011 505.028C744.376 503.001 750.68 500.769 756.984 498.551C764.791 495.804 772.567 492.978 780.655 490.078C790.402 496.043 800.158 502.353 809.959 508.589C819.778 514.836 829.72 520.891 839.497 527.199C849.251 533.492 859.217 539.462 868.95 546.083C868.401 547.251 868.064 548.202 867.544 549.04C858.339 563.91 850.454 579.466 843.174 595.353C838.264 606.073 833.677 616.922 829.471 627.929C825.214 639.072 821.283 650.326 817.639 661.691C813.816 673.614 810.338 685.629 807.238 697.752C805.005 706.488 803.05 715.299 801.153 724.116C799.228 733.075 797.384 742.057 795.772 751.077C794.442 758.525 793.401 766.03 792.415 773.533C791.277 782.192 790.197 790.863 789.359 799.554C788.506 808.393 787.942 817.26 787.309 826.121C785.988 844.593 786.128 863.098 786.283 881.597C786.393 894.557 787.454 907.476 788.742 920.374C789.234 925.298 789.497 930.246 789.834 935.185C790.549 945.643 791.253 956.103 791.936 966.563C791.982 967.258 791.809 967.967 791.721 968.807C790.757 968.986 789.93 969.238 789.092 969.277C787.493 969.354 785.888 969.317 784.284 969.317C590.786 969.317 397.286 969.317 203.788 969.317C202.185 969.317 200.579 969.356 198.98 969.277C198.149 969.236 197.329 968.971 196.351 968.776L196.345 968.781ZM474.784 707.779C474.703 709.432 474.576 710.861 474.57 712.289C474.544 717.969 474.579 723.648 474.53 729.328C474.522 730.278 474.205 731.225 474.01 732.279C472.75 732.378 471.753 732.526 470.755 732.52C464.79 732.48 458.825 732.41 452.86 732.323C452.611 732.319 452.366 732.052 451.964 731.818C451.388 730.564 451.611 729.094 451.605 727.668C451.581 722.134 451.616 716.6 451.574 711.066C451.565 709.951 451.323 708.839 451.183 707.661C450.205 707.503 449.503 707.295 448.801 707.293C438.608 707.271 428.414 707.265 418.219 707.297C417.397 707.3 416.574 707.608 415.776 707.768C414.999 709.483 415.238 711.101 415.236 712.676C415.22 728.696 415.225 744.716 415.227 760.737C415.227 761.465 415.209 762.194 415.242 762.922C415.354 765.424 415.776 765.838 418.418 765.958C419.435 766.004 420.457 765.978 421.476 765.978C469.679 765.978 517.88 765.978 566.082 765.978C567.393 765.978 568.707 766.013 570.011 765.908C570.695 765.853 571.358 765.527 572.242 765.26C572.318 763.884 572.443 762.6 572.452 761.314C572.48 757.381 572.463 753.451 572.463 749.518C572.463 737.14 572.478 724.759 572.443 712.381C572.439 710.83 572.841 709.168 571.638 707.654C571.153 707.547 570.599 707.321 570.046 707.319C559.271 707.302 548.494 707.297 537.719 707.341C537.069 707.343 536.42 707.774 535.606 708.063V716.042C535.606 718.809 535.656 721.579 535.591 724.343C535.529 726.916 535.906 729.528 535.322 731.995C531.494 732.725 517.383 732.725 513.837 732.039C512.94 730.748 513.306 729.248 513.295 727.828C513.251 722.147 513.288 716.469 513.26 710.788C513.253 709.66 513.479 708.422 512.365 707.59C507.971 707.066 478.638 707.144 474.789 707.781L474.784 707.779ZM547.05 686.382C547.155 685.82 547.376 685.129 547.396 684.431C547.448 682.392 547.636 680.325 547.378 678.319C546.888 674.507 548.474 671.635 550.808 668.852C554.36 664.618 557.722 660.223 561.18 655.91C563.93 652.482 566.049 648.689 567.885 644.713C569.057 642.171 569.748 639.513 570.068 636.755C570.687 631.418 569.486 626.593 565.684 622.664C560.749 617.563 554.736 614.56 547.628 613.934C537.369 613.031 527.723 615.907 518.157 618.992C512.494 620.818 506.98 623.102 501.369 625.099C498.926 625.969 496.411 626.634 493.928 627.393C491.518 626.394 489.035 625.534 486.71 624.366C480.049 621.024 473.071 618.58 465.89 616.669C458.692 614.75 451.425 613.283 443.914 613.854C442.042 613.996 440.152 614.232 438.33 614.667C433.268 615.879 428.854 618.394 425.061 621.907C421.026 625.643 418.751 630.16 419.28 635.878C419.488 638.109 420.203 640.146 421.023 642.156C422.345 645.404 424.134 648.403 426.297 651.17C430.151 656.098 434.032 661.006 437.864 665.952C439.732 668.362 441.517 670.836 443.339 673.282C443.448 676.327 443.531 679.374 443.676 682.418C443.743 683.836 443.313 685.336 444.327 686.749C445.419 686.749 446.572 686.887 447.681 686.728C456.047 685.518 464.462 684.921 472.907 684.674C474.942 684.614 476.969 684.35 479.004 684.293C486.568 684.081 494.134 683.729 501.695 683.792C508.235 683.847 514.769 684.47 521.309 684.7C528.444 684.949 535.542 685.524 542.605 686.566C544.007 686.773 545.456 687.331 547.052 686.384L547.05 686.382ZM566.367 843.025C566.553 841.129 565.516 839.827 564.785 838.458C560.682 830.754 556.532 823.076 552.4 815.386C549.461 809.913 550.071 810.757 544.756 810.753C511.39 810.727 478.024 810.74 444.658 810.74H440.06C438.205 813.308 424.757 837.303 423.069 841.043C422.841 841.546 422.778 842.126 422.655 842.605C423.025 842.879 423.248 843.189 423.471 843.189C470.385 843.253 517.298 843.294 564.212 843.323C564.912 843.323 565.612 843.134 566.367 843.027V843.025ZM610.077 883.325C607.327 880.47 604.645 878.471 602.128 876.325C593.16 868.681 584.051 861.2 575.096 853.54C573.432 852.116 571.791 851.276 569.626 851.394C568.464 851.457 567.296 851.4 566.13 851.4C538.9 851.4 511.67 851.4 484.441 851.4C463.18 851.4 441.919 851.4 420.658 851.4C419.492 851.4 418.324 851.462 417.165 851.394C415.144 851.276 413.604 852.037 412.09 853.398C406.25 858.645 400.281 863.75 394.386 868.937C389.799 872.97 385.227 877.023 380.697 881.122C380.024 881.73 378.805 882.131 379.175 883.471C382.609 884.014 439.272 884.064 442.984 883.563C446.3 879.668 449.404 875.811 452.727 872.154C459.932 864.231 468.736 858.748 478.951 855.574C481.865 854.668 484.837 853.914 487.83 853.312C493.889 852.092 499.956 852.048 506.007 853.537C511.114 854.795 515.933 856.661 520.561 859.229C529.897 864.409 537.71 871.148 543.482 880.182C544.255 881.391 545.127 882.535 545.862 883.581C551.326 884.119 605.96 883.994 610.077 883.325ZM442.013 802.312C443.824 803.029 445.583 802.769 447.296 802.769C478.603 802.784 509.911 802.78 541.219 802.78C542.091 802.78 542.971 802.835 543.839 802.756C544.662 802.681 545.471 802.467 546.326 802.307C546.326 801.373 546.433 800.641 546.306 799.952C545.856 797.524 545.289 795.118 544.832 792.692C543.892 787.696 542.623 782.744 542.929 777.579C542.986 776.608 542.689 775.615 542.573 774.749C540.621 773.539 538.679 773.97 536.829 773.968C508.725 773.94 480.62 773.948 452.517 773.951C451.351 773.951 450.179 773.885 449.026 774.005C448.21 774.091 447.42 774.434 446.401 774.725C446.368 776.593 446.401 778.33 446.287 780.06C446.174 781.792 446.064 783.551 445.686 785.237C444.572 790.203 443.313 795.135 442.151 800.092C441.994 800.768 442.061 801.496 442.018 802.31L442.013 802.312ZM442.562 891.954C440.922 891.893 439.491 891.797 438.061 891.794C430.928 891.779 423.795 891.788 416.662 891.788C403.706 891.788 390.748 891.773 377.792 891.81C376.25 891.814 374.61 891.42 373.219 892.3C372.869 895.117 372.63 916.529 372.915 920.346C372.956 920.893 373.171 921.427 373.37 922.225C375.032 922.286 376.6 922.396 378.171 922.398C395.057 922.411 411.944 922.406 428.832 922.404C432.616 922.404 436.403 922.428 440.187 922.371C441.003 922.358 441.814 922.037 442.538 921.877C443.181 918.224 443.229 896.541 442.562 891.958V891.954ZM615.243 892.365C610.923 891.567 566.496 891.241 548.839 891.803C548.004 891.829 547.173 892.013 546.254 892.133C546.103 892.895 545.902 893.446 545.9 893.995C545.875 902.593 545.858 911.192 545.906 919.79C545.91 920.584 546.359 921.376 546.674 922.402H551.156C555.819 922.402 560.483 922.402 565.146 922.402C580.156 922.402 595.165 922.415 610.175 922.382C611.728 922.378 613.371 922.77 615.226 921.612C615.274 912.041 615.254 902.313 615.241 892.367L615.243 892.365ZM442.501 955.339C443.418 952.48 442.952 949.711 443.024 946.999C443.096 944.236 443.085 941.471 443.028 938.709C442.973 935.992 443.334 933.236 442.715 930.762C440.909 929.679 439.275 930.029 437.711 930.027C424.475 929.997 411.239 930.01 398.001 930.01C391.019 930.01 384.037 929.99 377.055 930.029C375.795 930.036 374.426 929.682 373.017 930.915C372.665 933.376 372.906 936.128 372.864 938.858C372.823 941.62 372.805 944.387 372.869 947.15C372.932 949.853 372.523 952.607 373.234 955.173C376.865 955.702 436.663 955.84 442.497 955.339H442.501ZM546.138 930.694C546.026 931.519 545.882 932.088 545.88 932.659C545.862 939.356 545.849 946.056 545.886 952.754C545.891 953.572 546.201 954.39 546.411 955.411C548.045 955.486 549.472 955.604 550.898 955.606C561.528 955.621 572.157 955.615 582.787 955.615C592.252 955.615 601.716 955.628 611.181 955.597C612.443 955.593 613.821 955.965 614.902 954.915C615.497 950.426 615.381 933.789 614.698 930.425C614.233 930.314 613.69 930.073 613.148 930.073C591.307 930.069 569.466 930.084 547.628 930.119C547.234 930.119 546.84 930.414 546.14 930.694H546.138ZM508.008 955.3C508.095 954.106 508.27 952.83 508.273 951.555C508.292 938.462 508.303 925.368 508.262 912.277C508.255 910.542 508.203 908.729 507.695 907.099C507.148 905.343 506.317 903.514 505.11 902.167C503.684 900.577 501.783 899.367 499.963 898.188C499.027 897.582 497.841 897.272 496.723 897.053C492.196 896.16 488.556 897.928 485.17 900.806C481.967 903.527 480.299 906.692 480.338 911.006C480.465 924.826 480.382 938.645 480.393 952.467C480.393 953.443 480.498 954.416 480.55 955.322C484.767 955.95 504.222 955.934 508.008 955.3ZM483.56 571.093C483.595 573.761 483.041 576.043 484.024 578.412C485.909 578.648 487.731 578.878 489.693 579.125C490.31 583.086 490.181 586.809 489.816 590.72C488.575 591.265 487.377 591.744 486.215 592.306C478.988 595.801 474.485 603.315 474.743 610.957C474.815 613.081 475.357 614.416 477.661 615.122C482.661 616.653 487.561 618.508 492.493 620.258C494.092 620.825 495.606 620.634 497.181 620.101C500.208 619.075 503.301 618.246 506.313 617.178C509.023 616.216 511.853 615.505 514.378 613.961C515.034 610.509 514.92 607.228 513.702 604.01C511.473 598.131 507.7 593.791 501.606 591.693C500.54 591.326 499.554 590.731 498.504 590.226C498.32 586.431 498.075 582.839 498.675 579.145C500.648 578.88 502.341 578.652 504.139 578.412C504.887 575.905 504.926 573.543 504.139 571.027C503.161 570.953 502.301 570.916 501.448 570.817C500.615 570.721 499.788 570.559 498.76 570.395C498.484 568.125 498.226 566.003 497.961 563.822C495.407 563.022 493.02 563.194 490.717 563.597C489.374 565.887 490.89 568.505 489.236 570.588C487.53 570.741 485.815 570.894 483.56 571.097V571.093ZM547.91 694.449C546.899 694.206 545.805 693.83 544.686 693.696C540.499 693.198 536.301 692.784 532.11 692.329C523.722 691.415 515.331 690.514 506.888 690.339C494.083 690.072 481.281 689.825 468.513 691.312C463.46 691.901 458.362 692.095 453.296 692.587C449.969 692.911 446.655 693.408 443.35 693.915C441.875 694.14 441.252 694.829 441.167 696.212C441.07 697.778 440.893 699.379 441.495 701.015C443.243 701.682 445.001 701.418 446.712 701.418C478.743 701.435 510.777 701.431 542.809 701.431C543.828 701.431 544.854 701.49 545.865 701.4C546.689 701.328 547.496 701.074 548.349 700.895C548.5 698.677 548.868 696.669 547.912 694.449H547.91ZM519.168 868.044C503.614 857.451 483.569 858.971 469.64 868.296C473.872 875.385 478.721 882.087 483.232 889.003C483.685 889.699 484.404 890.222 485.122 890.95C488.125 889.511 491.209 888.33 494.392 888.59C497.66 888.857 500.866 889.872 504.419 890.629C509.487 883.426 514.13 875.741 519.166 868.044H519.168ZM526.454 873.766C525.979 874.191 525.45 874.488 525.168 874.941C520.62 882.212 516.106 889.504 511.667 896.653C511.908 897.355 511.976 897.81 512.199 898.164C514.141 901.235 514.76 904.588 514.629 908.186C514.502 911.68 514.585 915.179 514.623 918.677C514.631 919.499 514.835 920.317 514.981 921.376C518.993 921.593 522.764 921.562 526.524 921.461C530.245 921.363 534.024 922.021 537.924 920.958C538.012 919.524 538.152 918.239 538.156 916.956C538.178 909.232 538.086 901.508 538.198 893.787C538.259 889.524 537.004 885.744 534.659 882.299C532.441 879.042 529.838 876.118 526.454 873.768V873.766ZM462.194 873.747C457.53 877.058 454.166 881.179 451.83 886.092C450.975 887.892 450.494 889.891 450.511 892.004C450.586 900.887 450.535 909.768 450.561 918.651C450.564 919.473 450.789 920.293 450.898 921.028C454.86 921.63 469.605 921.65 473.535 921.066C473.677 920.162 473.938 919.191 473.964 918.213C474.03 915.739 473.955 913.263 474.001 910.787C474.045 908.462 473.887 906.082 474.334 903.829C474.804 901.454 475.88 899.199 476.729 896.788C474.959 893.398 464.6 876.002 462.194 873.744V873.747ZM537.465 955.23C538.747 952.69 538.038 949.895 538.141 947.2C538.253 944.302 538.25 941.39 538.141 938.492C538.04 935.802 538.714 933.02 537.496 930.401C534.961 929.703 532.482 930.084 530.037 930.023C527.425 929.957 524.809 929.946 522.2 930.027C519.793 930.102 517.324 929.647 514.721 930.511C514.489 934.719 514.555 938.764 514.625 942.799C514.697 946.946 514.181 951.131 514.99 955.188C518.875 955.75 533.607 955.766 537.465 955.232V955.23ZM450.855 930.399C450.743 931.186 450.566 931.878 450.564 932.569C450.544 939.389 450.533 946.209 450.579 953.029C450.583 953.826 450.944 954.622 451.117 955.324C457.01 955.884 469.847 955.735 473.069 955.083C473.187 954.729 473.43 954.331 473.432 953.933C473.459 946.533 473.461 939.133 473.439 931.736C473.439 931.335 473.196 930.935 473.056 930.508C472.619 930.357 472.223 930.106 471.825 930.104C465.442 930.067 459.059 930.053 452.674 930.062C452.13 930.062 451.585 930.259 450.852 930.399H450.855Z" fill="#808080"/>
<path d="M792.685 980.669C792.902 981.377 793.221 982.04 793.298 982.729C793.993 988.95 794.606 995.182 795.33 1001.4C795.835 1005.74 796.432 1010.06 797.064 1014.39C797.95 1020.43 798.777 1026.49 799.868 1032.51C801.586 1041.95 803.41 1051.39 805.361 1060.79C807.102 1069.19 808.961 1077.57 810.98 1085.91C812.826 1093.54 814.83 1101.14 816.993 1108.68C819.2 1116.37 821.543 1124.03 824.091 1131.61C827.053 1140.43 830.109 1149.23 833.482 1157.9C836.959 1166.84 840.608 1175.74 844.652 1184.44C849.128 1194.06 853.995 1203.51 858.956 1212.9C863.853 1222.17 869.477 1231.02 875.175 1239.81C876.177 1241.36 877.014 1243.19 877.31 1244.99C878.13 1249.97 877.507 1254.82 875.376 1259.49C872.368 1266.08 868.033 1271.71 863.14 1276.94C857.256 1283.22 850.591 1288.62 843.683 1293.73C834.074 1300.84 823.953 1307.16 813.539 1313C803.646 1318.55 793.514 1323.62 782.818 1327.49C777.49 1329.42 772.249 1331.6 766.892 1333.43C760.437 1335.65 753.91 1337.66 747.394 1339.7C741.984 1341.39 736.562 1343.04 731.118 1344.61C722.46 1347.12 713.781 1349.55 705.112 1352.02C697.284 1354.25 689.455 1356.49 681.629 1358.73C669.198 1362.3 656.754 1365.81 644.347 1369.46C638.214 1371.27 632.144 1373.29 626.061 1375.27C619.571 1377.37 613.084 1379.49 606.626 1381.69C602.639 1383.05 598.691 1384.53 594.764 1386.06C579.306 1392.08 564.034 1398.56 549.661 1406.89C542.5 1411.05 535.673 1415.78 528.757 1420.35C521.228 1425.32 513.773 1430.41 506.281 1435.44C503.263 1437.47 500.238 1439.49 497.208 1441.5C496.242 1442.14 495.251 1442.75 494.021 1443.52C491.414 1441.74 488.767 1439.99 486.197 1438.14C479.112 1433.04 472.084 1427.87 464.986 1422.78C460.257 1419.4 455.524 1416.01 450.657 1412.83C444.204 1408.61 437.474 1404.87 430.575 1401.41C423.683 1397.95 416.746 1394.61 409.611 1391.7C403.828 1389.33 398.018 1387.02 392.178 1384.8C386.607 1382.69 381.012 1380.62 375.368 1378.71C368.625 1376.42 361.837 1374.25 355.037 1372.14C348.514 1370.11 341.963 1368.16 335.396 1366.28C326.457 1363.71 317.493 1361.23 308.531 1358.74C297.748 1355.75 286.947 1352.81 276.165 1349.81C267.061 1347.28 257.949 1344.77 248.886 1342.1C236.482 1338.44 224.147 1334.53 211.99 1330.11C201.876 1326.44 191.897 1322.38 182.411 1317.3C171.773 1311.6 161.357 1305.5 151.462 1298.53C145.263 1294.17 139.228 1289.61 133.552 1284.6C126.878 1278.71 120.771 1272.29 116.009 1264.71C113.99 1261.5 112.28 1258.13 111.208 1254.46C110.25 1251.18 110.261 1247.82 110.755 1244.5C110.961 1243.12 111.658 1241.73 112.402 1240.51C116.652 1233.56 121.066 1226.7 125.27 1219.72C130.752 1210.62 135.538 1201.13 140.146 1191.56C145.641 1180.16 150.687 1168.55 155.09 1156.68C158.781 1146.73 162.368 1136.73 165.594 1126.63C168.91 1116.24 171.867 1105.73 174.733 1095.2C176.986 1086.93 179.044 1078.59 180.855 1070.2C183.069 1059.97 184.981 1049.67 186.934 1039.38C187.993 1033.8 188.944 1028.2 189.804 1022.59C190.841 1015.83 191.81 1009.06 192.654 1002.27C193.463 995.772 194.065 989.245 194.793 982.736C194.87 982.047 195.18 981.382 195.392 980.673C196.095 980.533 196.652 980.325 197.21 980.325C395.096 980.312 592.98 980.312 790.865 980.325C791.425 980.325 791.985 980.529 792.681 980.664L792.685 980.669ZM339.548 1209.77C339.907 1206.09 341.322 1203.15 343.131 1200.26C347.46 1193.35 351.259 1186.16 354.249 1178.54C359.171 1166 361.769 1153.17 359.656 1139.67C358.867 1134.63 357.869 1129.63 355.352 1125.1C353.007 1120.87 350.08 1117.07 346.723 1113.61C340.55 1107.24 333.353 1102.5 324.917 1099.6C320.732 1098.15 316.535 1097.23 312.112 1097.31C310.073 1097.35 308.03 1097.36 305.992 1097.31C299.673 1097.18 293.539 1098.17 287.496 1100C282.287 1101.57 277.449 1103.89 273.028 1107C266.16 1111.82 260.582 1117.96 256.019 1124.97C250.188 1133.93 246.207 1143.78 242.666 1153.82C240.386 1160.27 238.755 1166.9 237.523 1173.63C235.756 1183.29 235.065 1193.02 236.086 1202.78C237.073 1212.2 238.927 1221.46 242.414 1230.35C245.612 1238.5 249.444 1246.3 253.941 1253.81C258.828 1261.96 264.723 1269.34 271.049 1276.4C274.643 1280.4 278.311 1284.34 281.988 1288.27C282.852 1289.19 283.641 1290.34 285.271 1290.32C285.726 1288.37 284.75 1286.62 284.573 1284.79C284.379 1282.76 284.151 1280.73 284.142 1278.69C284.136 1276.87 283.698 1274.96 284.897 1272.73C285.367 1273.77 285.676 1274.35 285.907 1274.97C286.726 1277.15 287.533 1279.34 288.314 1281.53C291.111 1289.39 295.783 1295.95 302.05 1301.41C303.892 1303.02 306.014 1304.28 307.875 1304.84C308.886 1303.49 308.089 1302.04 308.079 1300.64C308.068 1299.19 308.026 1297.73 307.875 1296.28C307.652 1294.13 307.621 1294.14 308.477 1292.08C310.708 1294.33 311.469 1297.42 313.392 1299.75C315.336 1302.1 317.023 1304.67 319.028 1306.97C321.034 1309.26 323.208 1311.43 325.47 1313.48C327.732 1315.53 330.055 1317.57 332.61 1319.21C335.064 1320.79 337.17 1323.16 340.843 1323.6C339.922 1320.5 338.868 1317.82 338.058 1315.07C337.275 1312.41 335.79 1309.83 336.477 1306.59C337.127 1306.97 337.536 1307.12 337.813 1307.39C340.898 1310.48 343.853 1313.71 347.053 1316.67C354.886 1323.93 363.53 1330.06 373.067 1334.9C373.544 1335.14 374.139 1335.44 374.738 1334.59C373.251 1328.59 369.712 1323.09 368.537 1315.95C369.941 1317.51 370.867 1318.39 371.628 1319.4C374.275 1322.92 377.433 1325.91 380.773 1328.74C386.049 1333.22 391.986 1336.53 398.392 1339.07C400.007 1339.71 401.658 1339.86 403.465 1340.08C403.944 1336.95 402.767 1334.32 402.529 1331.6C402.297 1328.96 401.065 1326.45 401.092 1323.7C401.516 1323.73 401.706 1323.67 401.8 1323.75C402.487 1324.28 403.165 1324.83 403.826 1325.4C409.712 1330.44 416.005 1334.81 423.256 1337.74C428.355 1339.8 433.602 1340.62 439.042 1340.38C439.81 1340.34 440.556 1339.83 441.667 1339.41C440.724 1337.92 439.963 1336.72 439.2 1335.51C437.176 1332.31 435.149 1329.12 433.138 1325.92C432.83 1325.42 432.616 1324.88 433.565 1324.45C438.985 1328.53 445.147 1331.38 451.678 1333.49C458.569 1335.71 465.551 1336.68 472.738 1335.23C473.591 1335.06 474.486 1334.94 474.591 1333.43C473.703 1332.8 472.686 1332.03 471.614 1331.34C468.65 1329.44 465.995 1327.19 463.775 1324.45C463.372 1323.95 462.663 1323.45 463.138 1322.61C473.39 1326.48 475.473 1327.08 480.169 1327.5C492.416 1328.59 493.864 1328.53 498.04 1326.68C494.363 1322.78 489.598 1320.11 485.414 1315.25C487.873 1315.96 489.367 1316.34 490.83 1316.81C496.992 1318.81 503.329 1319.59 509.773 1319.39C513.113 1319.29 516.483 1319.09 519.771 1318.52C526.313 1317.39 532.792 1317.47 539.313 1318.61C543.033 1319.27 546.846 1319.46 550.534 1320.25C556.643 1321.55 562.7 1323.12 568.752 1324.67C576.498 1326.65 584.208 1328.78 591.956 1330.76C600.688 1332.99 609.453 1335.09 618.184 1337.32C627.625 1339.72 637.029 1342.27 646.487 1344.6C650.573 1345.61 654.694 1346.69 658.974 1346.44C660.269 1346.36 661.599 1346.22 662.824 1345.83C664.451 1345.3 665.169 1344.19 664.987 1342.47C664.839 1341.05 664.333 1339.67 664.001 1338.26C663.773 1337.3 663.268 1336.32 664.486 1335.15C665.504 1335.29 666.77 1335.46 668.037 1335.63C669.474 1335.83 670.909 1336.19 672.346 1336.19C676.939 1336.2 679.743 1333.02 678.978 1328.53C678.411 1325.22 677.409 1321.99 675.161 1319.37C673.555 1317.49 671.899 1315.63 670.042 1314.02C660.75 1305.95 649.733 1301.16 638.214 1297.29C636.044 1296.56 633.982 1296.53 631.783 1296.89C629.495 1297.27 627.172 1297.56 624.858 1297.63C618.819 1297.8 613.075 1296.44 607.329 1294.58C601.337 1292.63 596.228 1289.53 591.958 1285.02C589.493 1282.41 587.166 1279.64 586.332 1275.75C587.078 1275.54 587.603 1275.26 588.135 1275.25C591.623 1275.19 595.119 1275.32 598.599 1275.15C605.579 1274.8 612.517 1274.02 619.374 1272.65C627.568 1271.01 635.272 1267.97 642.613 1264.05C650.227 1259.99 658.126 1256.73 666.593 1254.96C673.124 1253.6 679.621 1253.78 686.021 1255.73C687.546 1256.2 689.094 1256.8 690.017 1258.23C691.408 1260.39 693.541 1261.73 695.564 1263.1C699.156 1265.54 703.246 1266.58 707.586 1266.19C710.056 1265.97 712.689 1265.52 714.443 1263.7C716.736 1261.33 718.499 1258.5 719.179 1255.15C704.193 1249.73 704.008 1246.91 697.288 1238.36C696.704 1238.42 696.006 1238.52 695.306 1238.57C692.121 1238.79 688.935 1239.16 685.748 1239.16C683.079 1239.16 681.784 1237.66 681.642 1235.07C681.535 1233.11 682.644 1231.57 684.601 1231.44C686.476 1231.31 688.377 1231.46 690.258 1231.61C691.559 1231.71 692.841 1232.02 694.136 1232.22C696.608 1232.6 698.242 1231.68 699.39 1229.36C701.282 1225.55 702.667 1221.6 703.583 1217.46C703.804 1216.46 703.911 1215.43 705.075 1214.97C708.126 1215.81 711.173 1216.78 714.282 1217.48C718.545 1218.43 722.473 1217.56 725.487 1214.27C727.994 1211.53 728.591 1208 726.071 1204.73C724.982 1203.31 723.733 1202.09 722.049 1201.48C719.73 1200.64 717.399 1199.78 715.008 1199.21C709.281 1197.84 703.448 1197.87 697.634 1198.41C695.978 1198.56 694.449 1198.46 692.918 1197.96C687.845 1196.3 682.753 1195.88 677.431 1196.85C674.382 1197.41 671.886 1198.47 669.955 1200.84C666.925 1204.56 663.922 1208.31 660.895 1212.03C660.258 1212.82 659.67 1213.7 658.876 1214.28C654.3 1217.67 649.254 1219 643.645 1217.42C640.708 1216.59 637.796 1215.66 634.848 1214.87C634.266 1214.71 633.566 1215 632.693 1215.11C633.054 1216.24 633.293 1217.07 633.581 1217.87C635.049 1221.98 636.569 1226.07 637.978 1230.2C638.393 1231.42 638.652 1232.74 638.708 1234.03C638.811 1236.38 637.387 1237.98 635.053 1237.97C633.492 1237.97 631.816 1237.77 630.388 1237.18C626.897 1235.74 623.467 1234.13 620.112 1232.4C615.076 1229.79 610.124 1227.03 605.139 1224.33C604.013 1223.72 602.897 1223.08 601.224 1223.24C601.364 1224 601.383 1224.71 601.628 1225.32C602.549 1227.61 603.544 1229.88 604.511 1232.16C605.478 1234.43 606.445 1236.71 606.74 1239.2C607.09 1242.15 604.616 1244.24 602.121 1242.73C599.389 1241.07 596.51 1239.65 593.885 1237.84C585.245 1231.92 576.706 1225.85 568.096 1219.88C565.108 1217.81 562.133 1215.69 558.973 1213.92C554.298 1211.29 554.537 1210.36 550.707 1215.72C549.267 1217.74 548.073 1219.98 546.38 1221.75C542.445 1225.85 541.397 1226.71 536.859 1222.03C533.521 1218.59 530.522 1214.82 527.341 1211.22C524.741 1208.28 522.186 1205.29 519.443 1202.48C517.008 1199.98 514.379 1197.67 511.772 1195.35C510.081 1193.85 508.119 1193.59 506.12 1194.72C503.342 1196.3 500.546 1197.86 497.875 1199.61C493.864 1202.23 490.178 1205.34 485.705 1207.27C483.905 1208.04 482.131 1208.46 480.21 1208.37C476.809 1208.2 474.486 1206 474.42 1202.55C474.368 1199.79 474.698 1197.02 474.836 1194.26C474.886 1193.25 474.954 1192.23 474.869 1191.23C474.733 1189.65 473.957 1188.47 472.342 1188.04C471.367 1187.78 470.374 1187.44 469.383 1187.42C467.495 1187.37 465.59 1187.42 463.718 1187.63C452.772 1188.88 441.921 1188.17 431.117 1186.22C429.58 1185.94 428.02 1185.47 426.198 1186.15C426.428 1187.2 426.611 1188.17 426.85 1189.12C427.659 1192.36 428.6 1195.58 429.273 1198.86C429.822 1201.52 429.322 1204.02 427.484 1206.22C421.786 1213.06 414.905 1218.32 406.689 1221.72C396.201 1226.07 385.192 1226.89 374.08 1225.5C368.045 1224.74 362.041 1223.34 356.187 1221.66C349.492 1219.73 343.011 1217.08 336.379 1214.91C331.317 1213.27 326.892 1210.54 322.659 1207.43C316.041 1202.57 310.57 1196.59 305.425 1190.21C300.298 1183.85 296.86 1176.75 294.653 1168.98C292.275 1160.61 291.212 1152.17 293.275 1143.54C294.09 1140.13 295.059 1136.82 296.899 1133.78C300.134 1128.44 305.889 1126.36 311.631 1128.27C319.976 1131.06 325.416 1138.13 325.58 1146.93C325.643 1150.34 324.976 1153.59 323.856 1156.76C320.861 1165.24 315.621 1172.08 308.566 1177.58C307.667 1178.28 306.83 1179.06 305.987 1179.78C314.264 1192.33 328.972 1206.34 339.559 1209.76L339.548 1209.77ZM637.632 1182.26C636.862 1180.63 636.331 1179.48 635.777 1178.33C633.811 1174.28 631.624 1170.31 629.913 1166.15C627.126 1159.36 625.608 1152.28 625.871 1144.87C626.002 1141.17 626.868 1137.69 628.402 1134.35C629.397 1132.18 631 1130.93 633.428 1130.73C636.76 1130.45 640.078 1129.9 643.411 1129.79C649.175 1129.59 654.812 1130 659.009 1134.84C659.755 1135.7 660.794 1136.33 661.757 1136.98C663.493 1138.15 665.475 1138.64 667.536 1138.77C670.532 1138.96 672.899 1137.19 673.595 1134.24C673.794 1133.39 673.859 1132.5 673.829 1131.63C673.671 1127.31 674.717 1123.66 678.658 1121.12C680.784 1119.75 681.957 1117.49 682.263 1114.87C682.589 1112.1 681.53 1110.66 678.783 1110.58C675.29 1110.47 671.786 1110.66 668.297 1110.48C665.547 1110.35 662.769 1110.07 660.092 1109.46C656.804 1108.72 654.359 1106.68 653.103 1103.45C652.482 1101.85 652.627 1100.31 653.808 1098.95C657.48 1094.73 661.984 1091.76 667.614 1091.41C672.363 1091.11 676.965 1092.01 679.689 1096.73C679.903 1097.11 680.218 1097.43 680.513 1097.74C682.364 1099.75 683.96 1099.93 685.654 1097.89C687.41 1095.77 688.895 1093.42 690.356 1091.08C691.207 1089.72 691.979 1088.34 693.233 1087.29C693.898 1086.73 694.464 1086.05 695.074 1085.42C696.837 1083.61 697.984 1081.4 698.719 1079.03C699.629 1076.08 699.106 1073.33 697.356 1070.73C695.221 1067.55 695.304 1067.51 697.712 1064.41C698.874 1062.91 699.939 1061.34 701.138 1059.88C702.627 1058.07 703.067 1055.98 702.846 1053.74C702.402 1049.23 700.138 1045.69 696.358 1043.39C689.199 1039.03 681.388 1036.97 672.986 1038.15C665.215 1039.24 658.233 1037.35 651.914 1032.95C647.132 1029.63 642.324 1026.33 637.171 1023.65C632.418 1021.18 627.66 1018.58 622.351 1017.39C619.943 1016.85 617.504 1016.39 615.057 1016.08C611.321 1015.61 608.103 1014.01 605.209 1011.72C602.928 1009.92 600.793 1007.94 598.553 1006.08C596.875 1004.69 595.303 1003.05 593.397 1002.09C586.14 998.417 578.779 994.963 571.089 992.238C568.337 991.262 565.815 991.232 563.015 992.019C558.645 993.248 554.537 995.09 550.416 996.89C542.694 1000.26 535.004 1003.72 527.385 1007.32C518.94 1011.3 511.046 1016.22 503.716 1022.02C498.674 1026.01 494.159 1030.54 490.327 1035.71C489.887 1036.3 489.008 1037 489.9 1038.16C501.146 1034.59 511.973 1029.65 523.404 1026.29C522.575 1027.3 521.641 1028.11 520.626 1028.81C517.271 1031.12 513.826 1033.3 510.529 1035.69C503.576 1040.72 496.839 1046.05 490.425 1051.77C485.965 1055.74 481.682 1059.92 477.977 1064.6C475.82 1067.33 473.994 1070.33 472.097 1073.26C471.577 1074.06 470.945 1074.99 471.723 1076.12C472.117 1075.98 472.541 1075.89 472.9 1075.69C481.626 1070.72 490.664 1066.38 499.792 1062.22C500.327 1061.98 500.903 1061.83 501.172 1062.76C500.951 1063.02 500.73 1063.39 500.419 1063.64C490.813 1071.43 481.444 1079.48 472.478 1088.02C465.826 1094.36 459.496 1100.95 453.678 1108.04C451.09 1111.19 448.704 1114.5 446.866 1118.17C446.643 1118.61 446.591 1119.14 446.361 1120C451.353 1118.84 455.141 1116.04 459.385 1114.3C463.689 1112.54 467.915 1110.58 472.148 1108.65C476.343 1106.73 480.584 1104.95 485.075 1103.61C484.732 1104.44 484.294 1105.13 483.695 1105.61C472.047 1115.05 460.515 1124.61 449.865 1135.19C446.768 1138.26 443.719 1141.38 441.087 1144.88C440.606 1145.51 440.285 1146.27 439.528 1147.61C441.302 1147.12 442.395 1146.88 443.447 1146.51C449.758 1144.3 456.031 1141.98 462.366 1139.85C468.701 1137.71 475.083 1135.72 481.464 1133.72C484.513 1132.77 487.584 1131.87 490.681 1131.09C493.49 1130.38 495.185 1131 496.633 1133.41C497.668 1135.14 498.28 1137.12 499.155 1138.94C499.757 1140.2 499.647 1141.83 501.051 1142.79C503.285 1141.08 505.422 1139.35 507.668 1137.76C509.324 1136.6 511.129 1135.64 512.848 1134.56C516.361 1132.35 519.467 1133.03 522.278 1135.86C524.124 1137.71 526.009 1139.53 527.774 1141.46C531.305 1145.33 534.754 1149.27 538.258 1153.15C538.711 1153.65 539.085 1154.4 540.293 1154.11C540.522 1153.66 540.798 1153.01 541.157 1152.43C542.139 1150.81 543.016 1149.11 544.195 1147.65C546.306 1145.04 548.301 1144.8 551.041 1146.61C552.498 1147.57 553.935 1148.57 555.313 1149.64C560.828 1153.92 566.311 1158.24 571.826 1162.52C572.313 1162.9 572.941 1163.1 573.816 1163.54C573.718 1161.79 573.551 1160.5 573.593 1159.21C573.67 1156.77 574.754 1155.45 577.128 1154.89C579.011 1154.43 580.923 1154.5 582.706 1155.28C584.7 1156.14 586.643 1157.14 588.576 1158.14C589.607 1158.67 590.541 1159.4 591.567 1159.94C601.316 1165.14 611.021 1170.42 620.853 1175.46C625.499 1177.84 630.381 1179.76 635.178 1181.84C635.773 1182.1 636.493 1182.07 637.641 1182.26H637.632ZM192.816 1287.65C193.553 1289.05 194.095 1290.06 194.616 1291.09C197.134 1296.03 199.964 1300.78 203.814 1304.81C210.299 1311.61 218.119 1315.13 227.663 1314.27C230.22 1314.04 230.637 1313.72 231.191 1311.29C231.934 1308.03 232.586 1304.75 233.433 1301.51C235.012 1295.47 236.648 1289.43 239.221 1283.7C242.132 1277.22 245.837 1271.41 252.29 1267.84C252.736 1267.59 253.005 1267.02 253.5 1266.43C249.158 1260.1 245.19 1253.69 241.758 1246.95C238.265 1240.08 235.821 1232.79 233.109 1225.62C232.099 1225.56 231.374 1225.43 230.672 1225.49C225.281 1226 219.93 1225.78 214.591 1224.83C204.619 1223.06 196.204 1218.64 189.893 1210.56C188.386 1208.63 186.884 1206.69 185.331 1204.7C183.495 1205.43 182.306 1206.68 181.14 1207.97C175.733 1213.97 173.228 1221.1 172.996 1229.08C172.863 1233.62 173.501 1238.08 174.595 1242.48C174.908 1243.74 175.474 1244.98 175.024 1245.8C170.708 1249.36 166.637 1252.43 162.915 1255.87C156.716 1261.6 152.218 1268.48 150.038 1276.74C149.701 1278.02 149.329 1279.27 149.902 1280.72C151.02 1281.68 152.168 1282.8 153.452 1283.74C158.829 1287.69 164.728 1290.38 171.476 1290.77C177.776 1291.14 183.968 1290.48 189.961 1288.37C190.757 1288.09 191.602 1287.95 192.816 1287.64V1287.65ZM479.622 1159.57C473.436 1159.18 467.668 1160.22 461.904 1160.78C454.236 1161.52 446.621 1162.84 438.974 1163.84C437.299 1164.05 435.943 1164.64 434.755 1165.84C432.305 1168.34 429.759 1170.73 427.309 1173.22C426.41 1174.13 425.404 1175.04 425.277 1176.76C425.925 1177.1 426.618 1177.71 427.379 1177.82C430.695 1178.26 434.027 1178.77 437.364 1178.86C447.993 1179.14 458.626 1179.22 469.256 1179.41C471.581 1179.46 473.911 1179.61 476.227 1179.83C478.281 1180.02 479.67 1181.15 480.512 1183.07C482.011 1186.49 482.665 1190.01 482.179 1193.72C482.028 1194.87 481.796 1196.02 481.735 1197.18C481.68 1198.23 482.833 1199.14 483.835 1198.79C485.335 1198.26 486.851 1197.69 488.214 1196.88C491.095 1195.19 493.866 1193.3 496.71 1191.54C499.553 1189.78 502.353 1187.93 505.308 1186.37C510.606 1183.57 513.15 1183.9 517.43 1188.1C521.064 1191.67 524.485 1195.45 527.936 1199.19C532.077 1203.69 536.132 1208.26 540.277 1212.75C540.805 1213.32 541.649 1213.6 542.465 1214.09C543.182 1213.2 543.749 1212.56 544.254 1211.87C545.98 1209.52 547.631 1207.12 549.412 1204.82C552.594 1200.7 553.758 1200.47 558.03 1203.52C564.069 1207.83 569.99 1212.31 575.979 1216.69C581.85 1220.99 587.739 1225.27 593.64 1229.52C594.054 1229.82 594.633 1229.89 595.6 1230.23C595.285 1228.4 595.09 1227 594.793 1225.62C594.331 1223.49 593.699 1221.39 593.319 1219.24C592.518 1214.7 594.2 1213.04 598.839 1213.66C599.273 1213.72 599.712 1213.78 600.123 1213.91C602.471 1214.68 604.765 1215.5 606.917 1216.81C612.012 1219.91 617.222 1222.81 622.393 1225.78C623.786 1226.58 625.204 1227.35 626.997 1226.39C627.739 1224.57 627.341 1222.74 626.577 1220.99C625.066 1217.52 623.506 1214.08 621.881 1210.67C620.796 1208.39 619.265 1206.53 616.774 1205.58C615.704 1205.17 614.779 1204.38 613.773 1203.8C606.985 1199.85 600.2 1195.89 593.389 1191.98C592.711 1191.59 591.86 1191.5 590.724 1191.16C590.84 1193.28 591.002 1195.01 591.013 1196.74C591.026 1199.07 591.057 1201.41 590.825 1203.71C590.641 1205.54 589.187 1206.57 587.391 1206.16C586.002 1205.85 584.567 1205.31 583.401 1204.51C579.204 1201.63 575.085 1198.63 570.986 1195.6C564.782 1191.02 558.634 1186.37 552.43 1181.79C551.649 1181.21 550.687 1180.88 549.628 1180.35C548.941 1181.34 548.384 1182.15 547.815 1182.96C546.218 1185.21 544.757 1187.58 542.981 1189.69C540.411 1192.74 538.479 1192.82 535.688 1190.06C533.313 1187.72 531.198 1185.11 528.877 1182.7C523.627 1177.24 518.373 1171.79 513.014 1166.45C510.864 1164.3 510.326 1164.32 507.675 1165.86C504.91 1167.46 502.215 1169.2 499.518 1170.92C497.434 1172.25 495.426 1173.7 493.326 1175C490.802 1176.57 488.083 1177.49 485.036 1177.15C483.588 1176.99 482.481 1176.41 482.201 1174.9C481.831 1172.9 481.479 1170.89 481.306 1168.88C481.046 1165.84 480.974 1162.79 479.615 1159.58L479.622 1159.57ZM489.174 1169.09C491.136 1168.79 492.267 1167.6 493.621 1166.82C497.399 1164.65 501.091 1162.26 505.057 1160.5C511.529 1157.62 513.239 1158.08 518.36 1162.79C524.257 1168.21 529.778 1174.01 535.085 1180.01C536.224 1181.3 537.303 1182.64 539.087 1183.55C539.746 1182.61 540.288 1181.79 540.888 1181C542.213 1179.27 543.493 1177.5 544.928 1175.86C547.343 1173.11 549.757 1172.24 553.351 1174.72C557.54 1177.61 561.768 1180.45 565.896 1183.43C570.97 1187.09 575.953 1190.88 580.997 1194.59C581.505 1194.96 582.17 1195.12 583.143 1195.55C583.143 1193.65 583.003 1192.2 583.169 1190.78C583.696 1186.3 587.12 1183.38 591.219 1184.04C593.946 1184.48 596.582 1185.31 598.944 1186.88C603.665 1190.02 608.385 1193.16 613.184 1196.18C618.622 1199.6 624.421 1202.27 630.565 1204.19C632.479 1204.79 634.224 1204.7 636.06 1203.86C639.754 1202.17 642.536 1199.46 644.953 1196.31C645.441 1195.68 645.629 1194.81 645.959 1194.04C641.386 1192.34 637.009 1190.78 632.682 1189.09C625.501 1186.28 618.436 1183.2 611.699 1179.43C603.197 1174.67 594.749 1169.82 586.247 1165.07C585.011 1164.37 583.819 1163.39 582.183 1163.56C581.566 1165.01 582.224 1166.39 582.345 1167.81C582.454 1169.09 582.568 1170.45 582.27 1171.67C581.745 1173.83 579.879 1174.77 577.893 1173.83C575.538 1172.71 573.191 1171.48 571.084 1169.96C564.951 1165.54 558.953 1160.93 552.872 1156.43C551.728 1155.59 550.444 1154.92 549.066 1154.08C548.427 1154.96 547.931 1155.65 547.423 1156.33C546.129 1158.08 544.934 1159.92 543.502 1161.55C541.964 1163.29 540.859 1163.33 539.022 1161.72C536.176 1159.22 533.402 1156.64 530.69 1154.01C526.827 1150.25 523.065 1146.39 519.222 1142.62C518.31 1141.72 517.251 1140.97 516.107 1140.03C514.714 1140.95 513.502 1141.71 512.321 1142.52C508.723 1144.99 505.208 1147.61 501.192 1149.38C497.593 1150.95 494.798 1151.66 493.383 1146.08C492.989 1144.53 492.442 1143.02 491.948 1141.5C491.677 1140.67 491.405 1139.83 491.068 1139.03C490.489 1137.64 489.789 1137.31 488.31 1137.71C487.89 1137.82 487.496 1138.03 487.085 1138.17C480.93 1140.37 474.764 1142.53 468.617 1144.76C462.195 1147.08 455.786 1149.44 449.382 1151.81C446.02 1153.06 442.682 1154.37 439.055 1155.76C439.65 1156.23 439.95 1156.66 440.267 1156.68C442.01 1156.75 443.784 1156.91 445.497 1156.68C451.119 1155.92 456.709 1154.95 462.327 1154.15C467.657 1153.38 472.979 1152.6 478.395 1152.57C482.47 1152.54 485.036 1154.4 486.285 1158.14C487.066 1160.48 487.647 1162.88 488.282 1165.27C488.61 1166.5 488.859 1167.75 489.168 1169.09H489.174ZM732.369 1183.62C733.576 1182.44 734.576 1181.59 735.42 1180.61C738.268 1177.31 741.044 1173.94 743.881 1170.63C748.516 1165.22 753.162 1159.82 757.852 1154.46C758.307 1153.94 758.698 1152.84 759.93 1153.47C759.665 1154.07 759.477 1154.61 759.199 1155.1C753.346 1165.47 747.473 1175.84 741.637 1186.23C741.234 1186.94 741.096 1187.81 740.788 1188.76C742.641 1189.88 744.353 1190.91 746.213 1192.02C747.059 1191.19 747.851 1190.57 748.45 1189.79C752.188 1184.97 755.883 1180.11 759.593 1175.26C767.811 1164.52 776.031 1153.79 784.251 1143.05C787.608 1138.67 790.924 1134.25 794.341 1129.91C796.213 1127.53 797.283 1125.04 797.051 1121.9C796.741 1117.7 796.758 1113.48 796.642 1109.27C796.55 1105.92 796.491 1102.57 796.373 1099.23C796.356 1098.71 796.106 1098.2 795.888 1097.42C794.735 1097.86 793.799 1098.19 792.88 1098.57C790.192 1099.67 787.506 1100.77 784.83 1101.89C779.478 1104.15 774.145 1106.45 768.784 1108.68C767.231 1109.33 766.183 1110.35 765.324 1111.81C761.336 1118.57 757.25 1125.28 753.203 1132.01C745.036 1145.58 736.844 1159.15 728.738 1172.76C727.576 1174.71 726.078 1176.55 725.571 1178.86C727.34 1181.13 729.95 1181.87 732.367 1183.62H732.369ZM701.448 1184.97C709.288 1190.69 746.532 1214.22 750.299 1215.81C753.033 1213.55 754.868 1210.49 756.972 1207.39C756.268 1206.79 755.787 1206.26 755.205 1205.89C747.956 1201.31 740.672 1196.78 733.438 1192.18C725.833 1187.33 718.282 1182.4 710.683 1177.55C709.62 1176.87 708.406 1176.43 707.122 1175.81C704.893 1178.75 702.818 1181.49 701.448 1184.97ZM703.417 1233.8C706.53 1236.8 709.231 1239.77 711.681 1243.01C714.752 1247.08 719.039 1248.93 724.298 1248.01C728.666 1247.25 732.588 1243.46 733.218 1239.06C733.347 1238.16 732.959 1237.18 732.822 1236.3C730.551 1235.81 728.563 1235.46 726.627 1234.93C721.557 1233.54 717.027 1230.94 712.49 1228.38C711.014 1227.55 709.697 1226.35 707.851 1226.22C706.398 1228.7 705.023 1231.06 703.421 1233.8H703.417ZM713.608 1221.97C720.345 1225.67 727.41 1228.3 734.495 1230.87C736.923 1231.75 739.143 1230.81 741.079 1229.48C744.668 1227.02 744.478 1221.49 740.733 1219.2C738.148 1217.63 735.407 1216.31 732.69 1214.85C732.343 1215.3 731.971 1215.6 731.842 1215.98C730.35 1220.35 727.141 1222.03 722.74 1221.83C719.704 1221.68 716.672 1221.28 713.608 1221.96V1221.97Z" fill="#808080"/>
<path d="M731.54 314.966C731.66 321.9 725.875 327.445 718.587 327.338C711.67 327.237 706.276 321.581 706.327 314.651C706.379 307.656 712.224 301.811 719.107 301.956C725.33 302.085 731.886 307.284 731.538 314.966H731.54Z" fill="#808080"/>
<path d="M571.624 272.166C578.517 272.269 584.352 278.216 584.153 285.181C583.983 291.209 579.888 297.268 571.484 297.517C564.531 297.725 558.459 291.664 558.684 284.802C558.929 277.343 564.889 272.083 571.622 272.166H571.624Z" fill="#808080"/>
<path d="M434.131 285.07C434.057 291.969 428.531 297.481 421.56 297.406C413.651 297.321 408.837 291.691 408.85 284.755C408.867 276.425 415.788 272.064 421.648 272.081C428.116 272.101 434.483 277.926 434.131 285.067V285.07Z" fill="#808080"/>
<path d="M256.506 314.432C256.327 306.608 263.558 301.693 269.392 301.848C276.151 302.028 281.845 307.745 281.735 314.596C281.602 322.98 275.364 327.364 269.014 327.283C261.666 327.191 256.229 321.565 256.504 314.432H256.506Z" fill="#808080"/>
<path d="M494.172 680.808C493.802 680.145 493.33 679.465 493.019 678.717C490.294 672.157 487.599 665.584 484.891 659.018C484.259 657.484 484.13 655.999 484.812 654.398C487.763 647.462 490.644 640.495 493.57 633.548C493.719 633.196 494.071 632.929 494.303 632.653C494.679 632.785 495.097 632.804 495.174 632.977C498.673 640.768 502.143 648.575 505.701 656.57C502.213 664.536 498.735 672.492 495.226 680.434C495.15 680.605 494.725 680.622 494.172 680.808Z" fill="#808080"/>
<path d="M459.786 672.634C458.911 671.731 458.373 671.403 458.17 670.93C455.985 665.851 453.887 660.735 451.691 655.662C450.945 653.939 450.945 652.342 451.702 650.623C453.867 645.697 455.932 640.725 458.109 635.803C458.358 635.239 459.062 634.878 459.784 634.211C460.596 635.967 461.271 637.38 461.908 638.811C463.8 643.065 465.655 647.337 467.573 651.581C468.02 652.572 468.159 653.462 467.702 654.496C465.123 660.345 462.586 666.212 459.788 672.636L459.786 672.634Z" fill="#808080"/>
<path d="M532.29 672.127C531.842 671.451 531.372 670.919 531.094 670.3C528.952 665.547 526.885 660.759 524.716 656.019C523.871 654.173 523.83 652.445 524.67 650.597C526.885 645.721 529.029 640.815 531.229 635.933C531.455 635.434 531.857 635.016 532.406 634.235C532.936 635.012 533.397 635.5 533.644 636.079C535.74 641.005 537.798 645.949 539.861 650.888C540.436 652.266 540.644 653.646 540.038 655.096C537.807 660.44 535.613 665.799 533.369 671.138C533.227 671.475 532.785 671.687 532.293 672.125L532.29 672.127Z" fill="#808080"/>
<path d="M596.796 1050.94C594.27 1053.22 591.216 1053.56 588.357 1054.45C586.979 1054.88 585.547 1055.21 584.116 1055.38C580.96 1055.77 578.011 1054.88 575.325 1053.34C571.856 1051.36 568.129 1050.33 564.253 1049.54C560.897 1048.86 557.835 1049.28 555.138 1051.32C552.946 1052.98 550.79 1054.75 548.908 1056.74C546.885 1058.89 547.014 1060.76 549.191 1062.85C550.424 1064.03 551.938 1065.01 553.487 1065.75C557.343 1067.58 561.459 1068.42 565.734 1068.61C572.28 1068.89 578.823 1069.14 585.374 1068.67C587.395 1068.52 589.436 1068.65 591.393 1068.65C591.936 1069.7 591.258 1070.17 590.678 1070.51C589.556 1071.16 588.384 1071.75 587.183 1072.25C580.671 1074.95 573.857 1076.6 566.847 1076.87C559.598 1077.14 552.647 1075.65 546.645 1071.19C543.646 1068.96 541.476 1066.06 540.321 1062.51C539.501 1059.98 539.208 1057.38 540.347 1054.82C541.469 1052.3 542.388 1049.68 543.716 1047.27C546.476 1042.28 550.759 1039.75 556.564 1039.76C560.116 1039.76 563.529 1040.26 566.777 1041.7C569.297 1042.82 571.911 1043.79 574.269 1045.19C580.308 1048.77 586.94 1050.17 593.778 1050.92C594.773 1051.03 595.79 1050.94 596.796 1050.94Z" fill="#808080"/>
<path d="M620.725 1050.62C621.578 1048.81 622.984 1047.89 624.776 1047.53C626.34 1047.23 627.919 1046.97 629.502 1046.79C632.571 1046.46 635.122 1045.07 636.824 1042.6C638.07 1040.79 639.527 1040.13 641.568 1040.27C643.278 1040.38 645.037 1040 646.918 1040.79C646.807 1041.36 646.853 1041.97 646.586 1042.38C643.878 1046.5 641.087 1050.57 638.388 1054.69C637.036 1056.76 635.424 1057.48 632.884 1056.9C628.26 1055.85 624.091 1054.13 620.725 1050.62Z" fill="#808080"/>
</g>
</svg>
